%TF.GenerationSoftware,KiCad,Pcbnew,9.0.6*%
%TF.CreationDate,2025-12-28T11:40:05+01:00*%
%TF.ProjectId,USB_Hub,5553425f-4875-4622-9e6b-696361645f70,rev?*%
%TF.SameCoordinates,Original*%
%TF.FileFunction,Soldermask,Top*%
%TF.FilePolarity,Negative*%
%FSLAX46Y46*%
G04 Gerber Fmt 4.6, Leading zero omitted, Abs format (unit mm)*
G04 Created by KiCad (PCBNEW 9.0.6) date 2025-12-28 11:40:05*
%MOMM*%
%LPD*%
G01*
G04 APERTURE LIST*
G04 Aperture macros list*
%AMRoundRect*
0 Rectangle with rounded corners*
0 $1 Rounding radius*
0 $2 $3 $4 $5 $6 $7 $8 $9 X,Y pos of 4 corners*
0 Add a 4 corners polygon primitive as box body*
4,1,4,$2,$3,$4,$5,$6,$7,$8,$9,$2,$3,0*
0 Add four circle primitives for the rounded corners*
1,1,$1+$1,$2,$3*
1,1,$1+$1,$4,$5*
1,1,$1+$1,$6,$7*
1,1,$1+$1,$8,$9*
0 Add four rect primitives between the rounded corners*
20,1,$1+$1,$2,$3,$4,$5,0*
20,1,$1+$1,$4,$5,$6,$7,0*
20,1,$1+$1,$6,$7,$8,$9,0*
20,1,$1+$1,$8,$9,$2,$3,0*%
G04 Aperture macros list end*
%ADD10O,1.730000X2.030000*%
%ADD11C,3.200000*%
%ADD12C,1.524000*%
%ADD13R,1.524000X1.524000*%
%ADD14RoundRect,0.250000X-0.325000X-0.450000X0.325000X-0.450000X0.325000X0.450000X-0.325000X0.450000X0*%
%ADD15RoundRect,0.237500X0.250000X0.237500X-0.250000X0.237500X-0.250000X-0.237500X0.250000X-0.237500X0*%
%ADD16RoundRect,0.237500X0.237500X-0.250000X0.237500X0.250000X-0.237500X0.250000X-0.237500X-0.250000X0*%
%ADD17RoundRect,0.250000X2.000000X0.750000X-2.000000X0.750000X-2.000000X-0.750000X2.000000X-0.750000X0*%
%ADD18RoundRect,0.250000X-0.475000X0.337500X-0.475000X-0.337500X0.475000X-0.337500X0.475000X0.337500X0*%
%ADD19RoundRect,0.150000X0.512500X0.150000X-0.512500X0.150000X-0.512500X-0.150000X0.512500X-0.150000X0*%
%ADD20RoundRect,0.150000X-0.512500X-0.150000X0.512500X-0.150000X0.512500X0.150000X-0.512500X0.150000X0*%
%ADD21C,3.000000*%
%ADD22C,1.600000*%
%ADD23R,1.500000X1.600000*%
%ADD24RoundRect,0.250000X0.475000X-0.337500X0.475000X0.337500X-0.475000X0.337500X-0.475000X-0.337500X0*%
%ADD25RoundRect,0.250000X0.450000X-0.400000X0.450000X0.400000X-0.450000X0.400000X-0.450000X-0.400000X0*%
%ADD26RoundRect,0.250000X0.337500X0.475000X-0.337500X0.475000X-0.337500X-0.475000X0.337500X-0.475000X0*%
%ADD27R,1.200000X0.400000*%
%ADD28RoundRect,0.050000X-0.285000X-0.100000X0.285000X-0.100000X0.285000X0.100000X-0.285000X0.100000X0*%
%ADD29RoundRect,0.075000X-0.650000X-0.075000X0.650000X-0.075000X0.650000X0.075000X-0.650000X0.075000X0*%
G04 APERTURE END LIST*
D10*
%TO.C,REF\u002A\u002A*%
X66751200Y-38303200D03*
%TD*%
%TO.C,REF\u002A\u002A*%
X71831200Y-38354000D03*
%TD*%
%TO.C,REF\u002A\u002A*%
X81737200Y-38354000D03*
%TD*%
%TO.C,REF\u002A\u002A*%
X76708000Y-38354000D03*
%TD*%
%TO.C,REF\u002A\u002A*%
X61569600Y-38354000D03*
%TD*%
D11*
%TO.C,REF\u002A\u002A*%
X99894000Y-40491800D03*
%TD*%
%TO.C,REF\u002A\u002A*%
X45648000Y-40491800D03*
%TD*%
%TO.C,REF\u002A\u002A*%
X99894000Y-138248000D03*
%TD*%
%TO.C,REF\u002A\u002A*%
X45622600Y-138171800D03*
%TD*%
D12*
%TO.C,SW1*%
X94945200Y-78536800D03*
X94945200Y-81076800D03*
X94945200Y-83616800D03*
X92405200Y-83616800D03*
X92405200Y-81076800D03*
D13*
X92405200Y-78536800D03*
%TD*%
D14*
%TO.C,D2*%
X97409000Y-60180600D03*
X95359000Y-60180600D03*
%TD*%
%TO.C,D5*%
X97409000Y-69300600D03*
X95359000Y-69300600D03*
%TD*%
%TO.C,D1*%
X97409000Y-57140600D03*
X95359000Y-57140600D03*
%TD*%
%TO.C,D3*%
X97409000Y-63220600D03*
X95359000Y-63220600D03*
%TD*%
%TO.C,D4*%
X97409000Y-66260600D03*
X95359000Y-66260600D03*
%TD*%
D15*
%TO.C,R2*%
X91012000Y-57140600D03*
X92837000Y-57140600D03*
%TD*%
%TO.C,R3*%
X91012000Y-60188600D03*
X92837000Y-60188600D03*
%TD*%
D16*
%TO.C,R4*%
X100203000Y-60188600D03*
X100203000Y-62013600D03*
%TD*%
D15*
%TO.C,R7*%
X95609400Y-74015600D03*
X97434400Y-74015600D03*
%TD*%
D17*
%TO.C,Y1*%
X77876400Y-98450400D03*
X69376400Y-98450400D03*
%TD*%
D16*
%TO.C,R5*%
X73863200Y-120493800D03*
X73863200Y-118668800D03*
%TD*%
D18*
%TO.C,C5*%
X80213200Y-60459800D03*
X80213200Y-62534800D03*
%TD*%
D19*
%TO.C,U9*%
X60655200Y-70342800D03*
X60655200Y-69392800D03*
X60655200Y-68442800D03*
X58380200Y-68442800D03*
X58380200Y-69392800D03*
X58380200Y-70342800D03*
%TD*%
%TO.C,U8*%
X60390200Y-53070800D03*
X60390200Y-52120800D03*
X60390200Y-51170800D03*
X58115200Y-51170800D03*
X58115200Y-52120800D03*
X58115200Y-53070800D03*
%TD*%
D20*
%TO.C,U7*%
X85558200Y-124002800D03*
X85558200Y-124952800D03*
X85558200Y-125902800D03*
X87833200Y-125902800D03*
X87833200Y-124952800D03*
X87833200Y-124002800D03*
%TD*%
D19*
%TO.C,U6*%
X60644200Y-126156800D03*
X60644200Y-125206800D03*
X60644200Y-124256800D03*
X58369200Y-124256800D03*
X58369200Y-125206800D03*
X58369200Y-126156800D03*
%TD*%
%TO.C,U5*%
X60644200Y-108884800D03*
X60644200Y-107934800D03*
X60644200Y-106984800D03*
X58369200Y-106984800D03*
X58369200Y-107934800D03*
X58369200Y-108884800D03*
%TD*%
%TO.C,U4*%
X60644200Y-91612800D03*
X60644200Y-90662800D03*
X60644200Y-89712800D03*
X58369200Y-89712800D03*
X58369200Y-90662800D03*
X58369200Y-91612800D03*
%TD*%
D21*
%TO.C,J4*%
X95343200Y-118448800D03*
X95343200Y-131588800D03*
D22*
X92633200Y-121518800D03*
X92633200Y-124018800D03*
X92633200Y-126018800D03*
D23*
X92633200Y-128518800D03*
%TD*%
D18*
%TO.C,C10*%
X87579200Y-130395800D03*
X87579200Y-128320800D03*
%TD*%
%TO.C,C6*%
X72085200Y-60459800D03*
X72085200Y-62534800D03*
%TD*%
D24*
%TO.C,C13*%
X75387200Y-56395800D03*
X75387200Y-58470800D03*
%TD*%
%TO.C,C7*%
X58428400Y-87176800D03*
X58428400Y-85101800D03*
%TD*%
%TO.C,C8*%
X58428400Y-102373800D03*
X58428400Y-104448800D03*
%TD*%
D25*
%TO.C,D6*%
X62238400Y-48568800D03*
X62238400Y-45668800D03*
%TD*%
D24*
%TO.C,C9*%
X58369200Y-121720800D03*
X58369200Y-119645800D03*
%TD*%
%TO.C,C11*%
X58115200Y-46493800D03*
X58115200Y-48568800D03*
%TD*%
%TO.C,C12*%
X58428400Y-63765800D03*
X58428400Y-65840800D03*
%TD*%
D25*
%TO.C,D7*%
X62238400Y-65840800D03*
X62238400Y-62940800D03*
%TD*%
D26*
%TO.C,C1*%
X78138200Y-111810800D03*
X80213200Y-111810800D03*
%TD*%
%TO.C,C2*%
X78181200Y-107492800D03*
X80256200Y-107492800D03*
%TD*%
D16*
%TO.C,R1*%
X70815200Y-118668800D03*
X70815200Y-120493800D03*
%TD*%
%TO.C,R8*%
X76911200Y-118668800D03*
X76911200Y-120493800D03*
%TD*%
D27*
%TO.C,U1*%
X75955200Y-107429300D03*
X75955200Y-108064300D03*
X75955200Y-108699300D03*
X75955200Y-109334300D03*
X75955200Y-109969300D03*
X75955200Y-110604300D03*
X75955200Y-111239300D03*
X75955200Y-111874300D03*
X75955200Y-112509300D03*
X75955200Y-113144300D03*
X75955200Y-113779300D03*
X75955200Y-114414300D03*
X75955200Y-115049300D03*
X75955200Y-115684300D03*
X70755200Y-115684300D03*
X70755200Y-115049300D03*
X70755200Y-114414300D03*
X70755200Y-113779300D03*
X70755200Y-113144300D03*
X70755200Y-112509300D03*
X70755200Y-111874300D03*
X70755200Y-111239300D03*
X70755200Y-110604300D03*
X70755200Y-109969300D03*
X70755200Y-109334300D03*
X70755200Y-108699300D03*
X70755200Y-108064300D03*
X70755200Y-107429300D03*
%TD*%
D16*
%TO.C,R6*%
X79959200Y-120446800D03*
X79959200Y-118621800D03*
%TD*%
D26*
%TO.C,C4*%
X73906200Y-68122800D03*
X71831200Y-68122800D03*
%TD*%
%TO.C,C3*%
X73906200Y-70408800D03*
X71831200Y-70408800D03*
%TD*%
D21*
%TO.C,J5*%
X50351200Y-58690800D03*
X50351200Y-45550800D03*
D22*
X53061200Y-55620800D03*
X53061200Y-53120800D03*
X53061200Y-51120800D03*
D23*
X53061200Y-48620800D03*
%TD*%
D21*
%TO.C,J3*%
X50410400Y-131912800D03*
X50410400Y-118772800D03*
D22*
X53120400Y-128842800D03*
X53120400Y-126342800D03*
X53120400Y-124342800D03*
D23*
X53120400Y-121842800D03*
%TD*%
D21*
%TO.C,J1*%
X50410400Y-97292800D03*
X50410400Y-84152800D03*
D22*
X53120400Y-94222800D03*
X53120400Y-91722800D03*
X53120400Y-89722800D03*
D23*
X53120400Y-87222800D03*
%TD*%
D21*
%TO.C,J2*%
X50410400Y-114602800D03*
X50410400Y-101462800D03*
D22*
X53120400Y-111532800D03*
X53120400Y-109032800D03*
X53120400Y-107032800D03*
D23*
X53120400Y-104532800D03*
%TD*%
D21*
%TO.C,J6*%
X50351200Y-76000800D03*
X50351200Y-62860800D03*
D22*
X53061200Y-72930800D03*
X53061200Y-70430800D03*
X53061200Y-68430800D03*
D23*
X53061200Y-65930800D03*
%TD*%
D28*
%TO.C,U3*%
X76911200Y-61534800D03*
X76911200Y-62034800D03*
X76911200Y-62534800D03*
X76911200Y-63034800D03*
X75431200Y-63034800D03*
X75431200Y-62534800D03*
X75431200Y-62034800D03*
X75431200Y-61534800D03*
%TD*%
D29*
%TO.C,U2*%
X68951200Y-69408800D03*
X68951200Y-69908800D03*
X68951200Y-70408800D03*
X68951200Y-70908800D03*
X68951200Y-71408800D03*
X64551200Y-71408800D03*
X64551200Y-70908800D03*
X64551200Y-70408800D03*
X64551200Y-69908800D03*
X64551200Y-69408800D03*
%TD*%
M02*
