M48
; DRILL file {KiCad 9.0.6} date 2025-12-28T11:44:39+0100
; FORMAT={-:-/ absolute / metric / decimal}
; #@! TF.CreationDate,2025-12-28T11:44:39+01:00
; #@! TF.GenerationSoftware,Kicad,Pcbnew,9.0.6
; #@! TF.FileFunction,Plated,1,2,PTH
FMAT,2
METRIC
; #@! TA.AperFunction,Plated,PTH,ViaDrill
T1C0.300
; #@! TA.AperFunction,Plated,PTH,ComponentDrill
T2C0.813
; #@! TA.AperFunction,Plated,PTH,ComponentDrill
T3C0.950
; #@! TA.AperFunction,Plated,PTH,ComponentDrill
T4C1.020
; #@! TA.AperFunction,Plated,PTH,ComponentDrill
T5C2.300
%
G90
G05
T1
X60.814Y-72.931
X61.722Y-84.303
X62.179Y-69.393
X64.211Y-67.107
X65.989Y-69.571
X66.319Y-58.09
X66.751Y-40.945
X66.751Y-45.009
X67.437Y-58.09
X67.437Y-69.799
X68.783Y-114.605
X70.053Y-67.869
X70.46Y-70.206
X71.831Y-86.843
X72.085Y-114.097
X72.593Y-117.907
X73.355Y-59.03
X73.609Y-54.153
X73.914Y-72.441
X74.117Y-111.811
X74.625Y-115.113
X74.879Y-40.945
X75.438Y-60.554
X75.641Y-105.969
X76.911Y-58.471
X77.927Y-113.081
X77.927Y-118.669
X78.054Y-110.058
X79.451Y-116.652
X81.229Y-109.017
X82.22Y-62.535
X83.261Y-127.305
X85.674Y-105.283
X87.071Y-62.738
X87.3Y-85.725
X88.925Y-76.403
X88.976Y-78.537
X89.865Y-65.075
X92.075Y-66.285
X97.333Y-77.572
X100.228Y-77.572
T2
X92.405Y-78.537
X92.405Y-81.077
X92.405Y-83.617
X94.945Y-78.537
X94.945Y-81.077
X94.945Y-83.617
T3
X53.061Y-48.621
X53.061Y-51.121
X53.061Y-53.121
X53.061Y-55.621
X53.061Y-65.931
X53.061Y-68.431
X53.061Y-70.431
X53.061Y-72.931
X53.12Y-87.223
X53.12Y-89.723
X53.12Y-91.723
X53.12Y-94.223
X53.12Y-104.533
X53.12Y-107.033
X53.12Y-109.033
X53.12Y-111.533
X53.12Y-121.843
X53.12Y-124.343
X53.12Y-126.343
X53.12Y-128.843
X92.633Y-121.519
X92.633Y-124.019
X92.633Y-126.019
X92.633Y-128.519
T4
X61.57Y-38.354
X66.751Y-38.303
X71.831Y-38.354
X76.708Y-38.354
X81.737Y-38.354
T5
X50.351Y-45.551
X50.351Y-58.691
X50.351Y-62.861
X50.351Y-76.001
X50.41Y-84.153
X50.41Y-97.293
X50.41Y-101.463
X50.41Y-114.603
X50.41Y-118.773
X50.41Y-131.913
X95.343Y-118.449
X95.343Y-131.589
M30
