%TF.GenerationSoftware,KiCad,Pcbnew,9.0.6*%
%TF.CreationDate,2025-12-28T11:43:40+01:00*%
%TF.ProjectId,USB_Hub,5553425f-4875-4622-9e6b-696361645f70,rev?*%
%TF.SameCoordinates,Original*%
%TF.FileFunction,Legend,Bot*%
%TF.FilePolarity,Positive*%
%FSLAX46Y46*%
G04 Gerber Fmt 4.6, Leading zero omitted, Abs format (unit mm)*
G04 Created by KiCad (PCBNEW 9.0.6) date 2025-12-28 11:43:40*
%MOMM*%
%LPD*%
G01*
G04 APERTURE LIST*
%ADD10O,1.730000X2.030000*%
%ADD11C,3.200000*%
%ADD12C,1.524000*%
%ADD13R,1.524000X1.524000*%
%ADD14C,3.000000*%
%ADD15C,1.600000*%
%ADD16R,1.500000X1.600000*%
G04 APERTURE END LIST*
%LPC*%
D10*
%TO.C,REF\u002A\u002A*%
X66751200Y-38303200D03*
%TD*%
%TO.C,REF\u002A\u002A*%
X71831200Y-38354000D03*
%TD*%
%TO.C,REF\u002A\u002A*%
X81737200Y-38354000D03*
%TD*%
%TO.C,REF\u002A\u002A*%
X76708000Y-38354000D03*
%TD*%
%TO.C,REF\u002A\u002A*%
X61569600Y-38354000D03*
%TD*%
D11*
%TO.C,REF\u002A\u002A*%
X99894000Y-40491800D03*
%TD*%
%TO.C,REF\u002A\u002A*%
X45648000Y-40491800D03*
%TD*%
%TO.C,REF\u002A\u002A*%
X99894000Y-138248000D03*
%TD*%
%TO.C,REF\u002A\u002A*%
X45622600Y-138171800D03*
%TD*%
D12*
%TO.C,SW1*%
X94945200Y-78536800D03*
X94945200Y-81076800D03*
X94945200Y-83616800D03*
X92405200Y-83616800D03*
X92405200Y-81076800D03*
D13*
X92405200Y-78536800D03*
%TD*%
D14*
%TO.C,J4*%
X95343200Y-118448800D03*
X95343200Y-131588800D03*
D15*
X92633200Y-121518800D03*
X92633200Y-124018800D03*
X92633200Y-126018800D03*
D16*
X92633200Y-128518800D03*
%TD*%
D14*
%TO.C,J5*%
X50351200Y-58690800D03*
X50351200Y-45550800D03*
D15*
X53061200Y-55620800D03*
X53061200Y-53120800D03*
X53061200Y-51120800D03*
D16*
X53061200Y-48620800D03*
%TD*%
D14*
%TO.C,J3*%
X50410400Y-131912800D03*
X50410400Y-118772800D03*
D15*
X53120400Y-128842800D03*
X53120400Y-126342800D03*
X53120400Y-124342800D03*
D16*
X53120400Y-121842800D03*
%TD*%
D14*
%TO.C,J1*%
X50410400Y-97292800D03*
X50410400Y-84152800D03*
D15*
X53120400Y-94222800D03*
X53120400Y-91722800D03*
X53120400Y-89722800D03*
D16*
X53120400Y-87222800D03*
%TD*%
D14*
%TO.C,J2*%
X50410400Y-114602800D03*
X50410400Y-101462800D03*
D15*
X53120400Y-111532800D03*
X53120400Y-109032800D03*
X53120400Y-107032800D03*
D16*
X53120400Y-104532800D03*
%TD*%
D14*
%TO.C,J6*%
X50351200Y-76000800D03*
X50351200Y-62860800D03*
D15*
X53061200Y-72930800D03*
X53061200Y-70430800D03*
X53061200Y-68430800D03*
D16*
X53061200Y-65930800D03*
%TD*%
%LPD*%
M02*
