%TF.GenerationSoftware,KiCad,Pcbnew,9.0.6*%
%TF.CreationDate,2025-12-28T11:40:05+01:00*%
%TF.ProjectId,USB_Hub,5553425f-4875-4622-9e6b-696361645f70,rev?*%
%TF.SameCoordinates,Original*%
%TF.FileFunction,Legend,Top*%
%TF.FilePolarity,Positive*%
%FSLAX46Y46*%
G04 Gerber Fmt 4.6, Leading zero omitted, Abs format (unit mm)*
G04 Created by KiCad (PCBNEW 9.0.6) date 2025-12-28 11:40:05*
%MOMM*%
%LPD*%
G01*
G04 APERTURE LIST*
G04 Aperture macros list*
%AMRoundRect*
0 Rectangle with rounded corners*
0 $1 Rounding radius*
0 $2 $3 $4 $5 $6 $7 $8 $9 X,Y pos of 4 corners*
0 Add a 4 corners polygon primitive as box body*
4,1,4,$2,$3,$4,$5,$6,$7,$8,$9,$2,$3,0*
0 Add four circle primitives for the rounded corners*
1,1,$1+$1,$2,$3*
1,1,$1+$1,$4,$5*
1,1,$1+$1,$6,$7*
1,1,$1+$1,$8,$9*
0 Add four rect primitives between the rounded corners*
20,1,$1+$1,$2,$3,$4,$5,0*
20,1,$1+$1,$4,$5,$6,$7,0*
20,1,$1+$1,$6,$7,$8,$9,0*
20,1,$1+$1,$8,$9,$2,$3,0*%
G04 Aperture macros list end*
%ADD10C,0.100000*%
%ADD11C,0.150000*%
%ADD12C,0.120000*%
%ADD13O,1.730000X2.030000*%
%ADD14C,3.200000*%
%ADD15C,1.524000*%
%ADD16R,1.524000X1.524000*%
%ADD17RoundRect,0.250000X-0.325000X-0.450000X0.325000X-0.450000X0.325000X0.450000X-0.325000X0.450000X0*%
%ADD18RoundRect,0.237500X0.250000X0.237500X-0.250000X0.237500X-0.250000X-0.237500X0.250000X-0.237500X0*%
%ADD19RoundRect,0.237500X0.237500X-0.250000X0.237500X0.250000X-0.237500X0.250000X-0.237500X-0.250000X0*%
%ADD20RoundRect,0.250000X2.000000X0.750000X-2.000000X0.750000X-2.000000X-0.750000X2.000000X-0.750000X0*%
%ADD21RoundRect,0.250000X-0.475000X0.337500X-0.475000X-0.337500X0.475000X-0.337500X0.475000X0.337500X0*%
%ADD22RoundRect,0.150000X0.512500X0.150000X-0.512500X0.150000X-0.512500X-0.150000X0.512500X-0.150000X0*%
%ADD23RoundRect,0.150000X-0.512500X-0.150000X0.512500X-0.150000X0.512500X0.150000X-0.512500X0.150000X0*%
%ADD24C,3.000000*%
%ADD25C,1.600000*%
%ADD26R,1.500000X1.600000*%
%ADD27RoundRect,0.250000X0.475000X-0.337500X0.475000X0.337500X-0.475000X0.337500X-0.475000X-0.337500X0*%
%ADD28RoundRect,0.250000X0.450000X-0.400000X0.450000X0.400000X-0.450000X0.400000X-0.450000X-0.400000X0*%
%ADD29RoundRect,0.250000X0.337500X0.475000X-0.337500X0.475000X-0.337500X-0.475000X0.337500X-0.475000X0*%
%ADD30R,1.200000X0.400000*%
%ADD31RoundRect,0.050000X-0.285000X-0.100000X0.285000X-0.100000X0.285000X0.100000X-0.285000X0.100000X0*%
%ADD32RoundRect,0.075000X-0.650000X-0.075000X0.650000X-0.075000X0.650000X0.075000X-0.650000X0.075000X0*%
G04 APERTURE END LIST*
D10*
X65813617Y-39686095D02*
X65432665Y-39686095D01*
X65432665Y-39686095D02*
X65394569Y-40067047D01*
X65394569Y-40067047D02*
X65432665Y-40028952D01*
X65432665Y-40028952D02*
X65508855Y-39990857D01*
X65508855Y-39990857D02*
X65699331Y-39990857D01*
X65699331Y-39990857D02*
X65775522Y-40028952D01*
X65775522Y-40028952D02*
X65813617Y-40067047D01*
X65813617Y-40067047D02*
X65851712Y-40143238D01*
X65851712Y-40143238D02*
X65851712Y-40333714D01*
X65851712Y-40333714D02*
X65813617Y-40409904D01*
X65813617Y-40409904D02*
X65775522Y-40448000D01*
X65775522Y-40448000D02*
X65699331Y-40486095D01*
X65699331Y-40486095D02*
X65508855Y-40486095D01*
X65508855Y-40486095D02*
X65432665Y-40448000D01*
X65432665Y-40448000D02*
X65394569Y-40409904D01*
X66080284Y-39686095D02*
X66346951Y-40486095D01*
X66346951Y-40486095D02*
X66613617Y-39686095D01*
X66689808Y-40562285D02*
X67299331Y-40562285D01*
X67908855Y-40486095D02*
X67451712Y-40486095D01*
X67680284Y-40486095D02*
X67680284Y-39686095D01*
X67680284Y-39686095D02*
X67604093Y-39800380D01*
X67604093Y-39800380D02*
X67527903Y-39876571D01*
X67527903Y-39876571D02*
X67451712Y-39914666D01*
X70995217Y-39787695D02*
X70614265Y-39787695D01*
X70614265Y-39787695D02*
X70576169Y-40168647D01*
X70576169Y-40168647D02*
X70614265Y-40130552D01*
X70614265Y-40130552D02*
X70690455Y-40092457D01*
X70690455Y-40092457D02*
X70880931Y-40092457D01*
X70880931Y-40092457D02*
X70957122Y-40130552D01*
X70957122Y-40130552D02*
X70995217Y-40168647D01*
X70995217Y-40168647D02*
X71033312Y-40244838D01*
X71033312Y-40244838D02*
X71033312Y-40435314D01*
X71033312Y-40435314D02*
X70995217Y-40511504D01*
X70995217Y-40511504D02*
X70957122Y-40549600D01*
X70957122Y-40549600D02*
X70880931Y-40587695D01*
X70880931Y-40587695D02*
X70690455Y-40587695D01*
X70690455Y-40587695D02*
X70614265Y-40549600D01*
X70614265Y-40549600D02*
X70576169Y-40511504D01*
X71261884Y-39787695D02*
X71528551Y-40587695D01*
X71528551Y-40587695D02*
X71795217Y-39787695D01*
X71871408Y-40663885D02*
X72480931Y-40663885D01*
X72633312Y-39863885D02*
X72671408Y-39825790D01*
X72671408Y-39825790D02*
X72747598Y-39787695D01*
X72747598Y-39787695D02*
X72938074Y-39787695D01*
X72938074Y-39787695D02*
X73014265Y-39825790D01*
X73014265Y-39825790D02*
X73052360Y-39863885D01*
X73052360Y-39863885D02*
X73090455Y-39940076D01*
X73090455Y-39940076D02*
X73090455Y-40016266D01*
X73090455Y-40016266D02*
X73052360Y-40130552D01*
X73052360Y-40130552D02*
X72595217Y-40587695D01*
X72595217Y-40587695D02*
X73090455Y-40587695D01*
X81091693Y-39915638D02*
X80996455Y-39868019D01*
X80996455Y-39868019D02*
X80853598Y-39868019D01*
X80853598Y-39868019D02*
X80710741Y-39915638D01*
X80710741Y-39915638D02*
X80615503Y-40010876D01*
X80615503Y-40010876D02*
X80567884Y-40106114D01*
X80567884Y-40106114D02*
X80520265Y-40296590D01*
X80520265Y-40296590D02*
X80520265Y-40439447D01*
X80520265Y-40439447D02*
X80567884Y-40629923D01*
X80567884Y-40629923D02*
X80615503Y-40725161D01*
X80615503Y-40725161D02*
X80710741Y-40820400D01*
X80710741Y-40820400D02*
X80853598Y-40868019D01*
X80853598Y-40868019D02*
X80948836Y-40868019D01*
X80948836Y-40868019D02*
X81091693Y-40820400D01*
X81091693Y-40820400D02*
X81139312Y-40772780D01*
X81139312Y-40772780D02*
X81139312Y-40439447D01*
X81139312Y-40439447D02*
X80948836Y-40439447D01*
X81567884Y-40868019D02*
X81567884Y-39868019D01*
X81567884Y-39868019D02*
X82139312Y-40868019D01*
X82139312Y-40868019D02*
X82139312Y-39868019D01*
X82615503Y-40868019D02*
X82615503Y-39868019D01*
X82615503Y-39868019D02*
X82853598Y-39868019D01*
X82853598Y-39868019D02*
X82996455Y-39915638D01*
X82996455Y-39915638D02*
X83091693Y-40010876D01*
X83091693Y-40010876D02*
X83139312Y-40106114D01*
X83139312Y-40106114D02*
X83186931Y-40296590D01*
X83186931Y-40296590D02*
X83186931Y-40439447D01*
X83186931Y-40439447D02*
X83139312Y-40629923D01*
X83139312Y-40629923D02*
X83091693Y-40725161D01*
X83091693Y-40725161D02*
X82996455Y-40820400D01*
X82996455Y-40820400D02*
X82853598Y-40868019D01*
X82853598Y-40868019D02*
X82615503Y-40868019D01*
X75719674Y-39889295D02*
X76214912Y-39889295D01*
X76214912Y-39889295D02*
X75948246Y-40194057D01*
X75948246Y-40194057D02*
X76062531Y-40194057D01*
X76062531Y-40194057D02*
X76138722Y-40232152D01*
X76138722Y-40232152D02*
X76176817Y-40270247D01*
X76176817Y-40270247D02*
X76214912Y-40346438D01*
X76214912Y-40346438D02*
X76214912Y-40536914D01*
X76214912Y-40536914D02*
X76176817Y-40613104D01*
X76176817Y-40613104D02*
X76138722Y-40651200D01*
X76138722Y-40651200D02*
X76062531Y-40689295D01*
X76062531Y-40689295D02*
X75833960Y-40689295D01*
X75833960Y-40689295D02*
X75757769Y-40651200D01*
X75757769Y-40651200D02*
X75719674Y-40613104D01*
X76443484Y-39889295D02*
X76710151Y-40689295D01*
X76710151Y-40689295D02*
X76976817Y-39889295D01*
X77167293Y-39889295D02*
X77662531Y-39889295D01*
X77662531Y-39889295D02*
X77395865Y-40194057D01*
X77395865Y-40194057D02*
X77510150Y-40194057D01*
X77510150Y-40194057D02*
X77586341Y-40232152D01*
X77586341Y-40232152D02*
X77624436Y-40270247D01*
X77624436Y-40270247D02*
X77662531Y-40346438D01*
X77662531Y-40346438D02*
X77662531Y-40536914D01*
X77662531Y-40536914D02*
X77624436Y-40613104D01*
X77624436Y-40613104D02*
X77586341Y-40651200D01*
X77586341Y-40651200D02*
X77510150Y-40689295D01*
X77510150Y-40689295D02*
X77281579Y-40689295D01*
X77281579Y-40689295D02*
X77205388Y-40651200D01*
X77205388Y-40651200D02*
X77167293Y-40613104D01*
X61444817Y-39736895D02*
X61063865Y-39736895D01*
X61063865Y-39736895D02*
X61025769Y-40117847D01*
X61025769Y-40117847D02*
X61063865Y-40079752D01*
X61063865Y-40079752D02*
X61140055Y-40041657D01*
X61140055Y-40041657D02*
X61330531Y-40041657D01*
X61330531Y-40041657D02*
X61406722Y-40079752D01*
X61406722Y-40079752D02*
X61444817Y-40117847D01*
X61444817Y-40117847D02*
X61482912Y-40194038D01*
X61482912Y-40194038D02*
X61482912Y-40384514D01*
X61482912Y-40384514D02*
X61444817Y-40460704D01*
X61444817Y-40460704D02*
X61406722Y-40498800D01*
X61406722Y-40498800D02*
X61330531Y-40536895D01*
X61330531Y-40536895D02*
X61140055Y-40536895D01*
X61140055Y-40536895D02*
X61063865Y-40498800D01*
X61063865Y-40498800D02*
X61025769Y-40460704D01*
X61711484Y-39736895D02*
X61978151Y-40536895D01*
X61978151Y-40536895D02*
X62244817Y-39736895D01*
D11*
X92341867Y-76744000D02*
X92484724Y-76791619D01*
X92484724Y-76791619D02*
X92722819Y-76791619D01*
X92722819Y-76791619D02*
X92818057Y-76744000D01*
X92818057Y-76744000D02*
X92865676Y-76696380D01*
X92865676Y-76696380D02*
X92913295Y-76601142D01*
X92913295Y-76601142D02*
X92913295Y-76505904D01*
X92913295Y-76505904D02*
X92865676Y-76410666D01*
X92865676Y-76410666D02*
X92818057Y-76363047D01*
X92818057Y-76363047D02*
X92722819Y-76315428D01*
X92722819Y-76315428D02*
X92532343Y-76267809D01*
X92532343Y-76267809D02*
X92437105Y-76220190D01*
X92437105Y-76220190D02*
X92389486Y-76172571D01*
X92389486Y-76172571D02*
X92341867Y-76077333D01*
X92341867Y-76077333D02*
X92341867Y-75982095D01*
X92341867Y-75982095D02*
X92389486Y-75886857D01*
X92389486Y-75886857D02*
X92437105Y-75839238D01*
X92437105Y-75839238D02*
X92532343Y-75791619D01*
X92532343Y-75791619D02*
X92770438Y-75791619D01*
X92770438Y-75791619D02*
X92913295Y-75839238D01*
X93246629Y-75791619D02*
X93484724Y-76791619D01*
X93484724Y-76791619D02*
X93675200Y-76077333D01*
X93675200Y-76077333D02*
X93865676Y-76791619D01*
X93865676Y-76791619D02*
X94103772Y-75791619D01*
X95008533Y-76791619D02*
X94437105Y-76791619D01*
X94722819Y-76791619D02*
X94722819Y-75791619D01*
X94722819Y-75791619D02*
X94627581Y-75934476D01*
X94627581Y-75934476D02*
X94532343Y-76029714D01*
X94532343Y-76029714D02*
X94437105Y-76077333D01*
X95645905Y-58985419D02*
X95645905Y-57985419D01*
X95645905Y-57985419D02*
X95884000Y-57985419D01*
X95884000Y-57985419D02*
X96026857Y-58033038D01*
X96026857Y-58033038D02*
X96122095Y-58128276D01*
X96122095Y-58128276D02*
X96169714Y-58223514D01*
X96169714Y-58223514D02*
X96217333Y-58413990D01*
X96217333Y-58413990D02*
X96217333Y-58556847D01*
X96217333Y-58556847D02*
X96169714Y-58747323D01*
X96169714Y-58747323D02*
X96122095Y-58842561D01*
X96122095Y-58842561D02*
X96026857Y-58937800D01*
X96026857Y-58937800D02*
X95884000Y-58985419D01*
X95884000Y-58985419D02*
X95645905Y-58985419D01*
X96598286Y-58080657D02*
X96645905Y-58033038D01*
X96645905Y-58033038D02*
X96741143Y-57985419D01*
X96741143Y-57985419D02*
X96979238Y-57985419D01*
X96979238Y-57985419D02*
X97074476Y-58033038D01*
X97074476Y-58033038D02*
X97122095Y-58080657D01*
X97122095Y-58080657D02*
X97169714Y-58175895D01*
X97169714Y-58175895D02*
X97169714Y-58271133D01*
X97169714Y-58271133D02*
X97122095Y-58413990D01*
X97122095Y-58413990D02*
X96550667Y-58985419D01*
X96550667Y-58985419D02*
X97169714Y-58985419D01*
X95645905Y-68105419D02*
X95645905Y-67105419D01*
X95645905Y-67105419D02*
X95884000Y-67105419D01*
X95884000Y-67105419D02*
X96026857Y-67153038D01*
X96026857Y-67153038D02*
X96122095Y-67248276D01*
X96122095Y-67248276D02*
X96169714Y-67343514D01*
X96169714Y-67343514D02*
X96217333Y-67533990D01*
X96217333Y-67533990D02*
X96217333Y-67676847D01*
X96217333Y-67676847D02*
X96169714Y-67867323D01*
X96169714Y-67867323D02*
X96122095Y-67962561D01*
X96122095Y-67962561D02*
X96026857Y-68057800D01*
X96026857Y-68057800D02*
X95884000Y-68105419D01*
X95884000Y-68105419D02*
X95645905Y-68105419D01*
X97122095Y-67105419D02*
X96645905Y-67105419D01*
X96645905Y-67105419D02*
X96598286Y-67581609D01*
X96598286Y-67581609D02*
X96645905Y-67533990D01*
X96645905Y-67533990D02*
X96741143Y-67486371D01*
X96741143Y-67486371D02*
X96979238Y-67486371D01*
X96979238Y-67486371D02*
X97074476Y-67533990D01*
X97074476Y-67533990D02*
X97122095Y-67581609D01*
X97122095Y-67581609D02*
X97169714Y-67676847D01*
X97169714Y-67676847D02*
X97169714Y-67914942D01*
X97169714Y-67914942D02*
X97122095Y-68010180D01*
X97122095Y-68010180D02*
X97074476Y-68057800D01*
X97074476Y-68057800D02*
X96979238Y-68105419D01*
X96979238Y-68105419D02*
X96741143Y-68105419D01*
X96741143Y-68105419D02*
X96645905Y-68057800D01*
X96645905Y-68057800D02*
X96598286Y-68010180D01*
X95645905Y-55945419D02*
X95645905Y-54945419D01*
X95645905Y-54945419D02*
X95884000Y-54945419D01*
X95884000Y-54945419D02*
X96026857Y-54993038D01*
X96026857Y-54993038D02*
X96122095Y-55088276D01*
X96122095Y-55088276D02*
X96169714Y-55183514D01*
X96169714Y-55183514D02*
X96217333Y-55373990D01*
X96217333Y-55373990D02*
X96217333Y-55516847D01*
X96217333Y-55516847D02*
X96169714Y-55707323D01*
X96169714Y-55707323D02*
X96122095Y-55802561D01*
X96122095Y-55802561D02*
X96026857Y-55897800D01*
X96026857Y-55897800D02*
X95884000Y-55945419D01*
X95884000Y-55945419D02*
X95645905Y-55945419D01*
X97169714Y-55945419D02*
X96598286Y-55945419D01*
X96884000Y-55945419D02*
X96884000Y-54945419D01*
X96884000Y-54945419D02*
X96788762Y-55088276D01*
X96788762Y-55088276D02*
X96693524Y-55183514D01*
X96693524Y-55183514D02*
X96598286Y-55231133D01*
X95645905Y-62025419D02*
X95645905Y-61025419D01*
X95645905Y-61025419D02*
X95884000Y-61025419D01*
X95884000Y-61025419D02*
X96026857Y-61073038D01*
X96026857Y-61073038D02*
X96122095Y-61168276D01*
X96122095Y-61168276D02*
X96169714Y-61263514D01*
X96169714Y-61263514D02*
X96217333Y-61453990D01*
X96217333Y-61453990D02*
X96217333Y-61596847D01*
X96217333Y-61596847D02*
X96169714Y-61787323D01*
X96169714Y-61787323D02*
X96122095Y-61882561D01*
X96122095Y-61882561D02*
X96026857Y-61977800D01*
X96026857Y-61977800D02*
X95884000Y-62025419D01*
X95884000Y-62025419D02*
X95645905Y-62025419D01*
X96550667Y-61025419D02*
X97169714Y-61025419D01*
X97169714Y-61025419D02*
X96836381Y-61406371D01*
X96836381Y-61406371D02*
X96979238Y-61406371D01*
X96979238Y-61406371D02*
X97074476Y-61453990D01*
X97074476Y-61453990D02*
X97122095Y-61501609D01*
X97122095Y-61501609D02*
X97169714Y-61596847D01*
X97169714Y-61596847D02*
X97169714Y-61834942D01*
X97169714Y-61834942D02*
X97122095Y-61930180D01*
X97122095Y-61930180D02*
X97074476Y-61977800D01*
X97074476Y-61977800D02*
X96979238Y-62025419D01*
X96979238Y-62025419D02*
X96693524Y-62025419D01*
X96693524Y-62025419D02*
X96598286Y-61977800D01*
X96598286Y-61977800D02*
X96550667Y-61930180D01*
X95645905Y-65065419D02*
X95645905Y-64065419D01*
X95645905Y-64065419D02*
X95884000Y-64065419D01*
X95884000Y-64065419D02*
X96026857Y-64113038D01*
X96026857Y-64113038D02*
X96122095Y-64208276D01*
X96122095Y-64208276D02*
X96169714Y-64303514D01*
X96169714Y-64303514D02*
X96217333Y-64493990D01*
X96217333Y-64493990D02*
X96217333Y-64636847D01*
X96217333Y-64636847D02*
X96169714Y-64827323D01*
X96169714Y-64827323D02*
X96122095Y-64922561D01*
X96122095Y-64922561D02*
X96026857Y-65017800D01*
X96026857Y-65017800D02*
X95884000Y-65065419D01*
X95884000Y-65065419D02*
X95645905Y-65065419D01*
X97074476Y-64398752D02*
X97074476Y-65065419D01*
X96836381Y-64017800D02*
X96598286Y-64732085D01*
X96598286Y-64732085D02*
X97217333Y-64732085D01*
X91757833Y-59025419D02*
X91424500Y-58549228D01*
X91186405Y-59025419D02*
X91186405Y-58025419D01*
X91186405Y-58025419D02*
X91567357Y-58025419D01*
X91567357Y-58025419D02*
X91662595Y-58073038D01*
X91662595Y-58073038D02*
X91710214Y-58120657D01*
X91710214Y-58120657D02*
X91757833Y-58215895D01*
X91757833Y-58215895D02*
X91757833Y-58358752D01*
X91757833Y-58358752D02*
X91710214Y-58453990D01*
X91710214Y-58453990D02*
X91662595Y-58501609D01*
X91662595Y-58501609D02*
X91567357Y-58549228D01*
X91567357Y-58549228D02*
X91186405Y-58549228D01*
X92138786Y-58120657D02*
X92186405Y-58073038D01*
X92186405Y-58073038D02*
X92281643Y-58025419D01*
X92281643Y-58025419D02*
X92519738Y-58025419D01*
X92519738Y-58025419D02*
X92614976Y-58073038D01*
X92614976Y-58073038D02*
X92662595Y-58120657D01*
X92662595Y-58120657D02*
X92710214Y-58215895D01*
X92710214Y-58215895D02*
X92710214Y-58311133D01*
X92710214Y-58311133D02*
X92662595Y-58453990D01*
X92662595Y-58453990D02*
X92091167Y-59025419D01*
X92091167Y-59025419D02*
X92710214Y-59025419D01*
X91757833Y-62073419D02*
X91424500Y-61597228D01*
X91186405Y-62073419D02*
X91186405Y-61073419D01*
X91186405Y-61073419D02*
X91567357Y-61073419D01*
X91567357Y-61073419D02*
X91662595Y-61121038D01*
X91662595Y-61121038D02*
X91710214Y-61168657D01*
X91710214Y-61168657D02*
X91757833Y-61263895D01*
X91757833Y-61263895D02*
X91757833Y-61406752D01*
X91757833Y-61406752D02*
X91710214Y-61501990D01*
X91710214Y-61501990D02*
X91662595Y-61549609D01*
X91662595Y-61549609D02*
X91567357Y-61597228D01*
X91567357Y-61597228D02*
X91186405Y-61597228D01*
X92091167Y-61073419D02*
X92710214Y-61073419D01*
X92710214Y-61073419D02*
X92376881Y-61454371D01*
X92376881Y-61454371D02*
X92519738Y-61454371D01*
X92519738Y-61454371D02*
X92614976Y-61501990D01*
X92614976Y-61501990D02*
X92662595Y-61549609D01*
X92662595Y-61549609D02*
X92710214Y-61644847D01*
X92710214Y-61644847D02*
X92710214Y-61882942D01*
X92710214Y-61882942D02*
X92662595Y-61978180D01*
X92662595Y-61978180D02*
X92614976Y-62025800D01*
X92614976Y-62025800D02*
X92519738Y-62073419D01*
X92519738Y-62073419D02*
X92234024Y-62073419D01*
X92234024Y-62073419D02*
X92138786Y-62025800D01*
X92138786Y-62025800D02*
X92091167Y-61978180D01*
X99227819Y-61267766D02*
X98751628Y-61601099D01*
X99227819Y-61839194D02*
X98227819Y-61839194D01*
X98227819Y-61839194D02*
X98227819Y-61458242D01*
X98227819Y-61458242D02*
X98275438Y-61363004D01*
X98275438Y-61363004D02*
X98323057Y-61315385D01*
X98323057Y-61315385D02*
X98418295Y-61267766D01*
X98418295Y-61267766D02*
X98561152Y-61267766D01*
X98561152Y-61267766D02*
X98656390Y-61315385D01*
X98656390Y-61315385D02*
X98704009Y-61363004D01*
X98704009Y-61363004D02*
X98751628Y-61458242D01*
X98751628Y-61458242D02*
X98751628Y-61839194D01*
X98561152Y-60410623D02*
X99227819Y-60410623D01*
X98180200Y-60648718D02*
X98894485Y-60886813D01*
X98894485Y-60886813D02*
X98894485Y-60267766D01*
X96355233Y-75900419D02*
X96021900Y-75424228D01*
X95783805Y-75900419D02*
X95783805Y-74900419D01*
X95783805Y-74900419D02*
X96164757Y-74900419D01*
X96164757Y-74900419D02*
X96259995Y-74948038D01*
X96259995Y-74948038D02*
X96307614Y-74995657D01*
X96307614Y-74995657D02*
X96355233Y-75090895D01*
X96355233Y-75090895D02*
X96355233Y-75233752D01*
X96355233Y-75233752D02*
X96307614Y-75328990D01*
X96307614Y-75328990D02*
X96259995Y-75376609D01*
X96259995Y-75376609D02*
X96164757Y-75424228D01*
X96164757Y-75424228D02*
X95783805Y-75424228D01*
X96688567Y-74900419D02*
X97355233Y-74900419D01*
X97355233Y-74900419D02*
X96926662Y-75900419D01*
X73150209Y-101979028D02*
X73150209Y-102455219D01*
X72816876Y-101455219D02*
X73150209Y-101979028D01*
X73150209Y-101979028D02*
X73483542Y-101455219D01*
X74340685Y-102455219D02*
X73769257Y-102455219D01*
X74054971Y-102455219D02*
X74054971Y-101455219D01*
X74054971Y-101455219D02*
X73959733Y-101598076D01*
X73959733Y-101598076D02*
X73864495Y-101693314D01*
X73864495Y-101693314D02*
X73769257Y-101740933D01*
X72888019Y-119747966D02*
X72411828Y-120081299D01*
X72888019Y-120319394D02*
X71888019Y-120319394D01*
X71888019Y-120319394D02*
X71888019Y-119938442D01*
X71888019Y-119938442D02*
X71935638Y-119843204D01*
X71935638Y-119843204D02*
X71983257Y-119795585D01*
X71983257Y-119795585D02*
X72078495Y-119747966D01*
X72078495Y-119747966D02*
X72221352Y-119747966D01*
X72221352Y-119747966D02*
X72316590Y-119795585D01*
X72316590Y-119795585D02*
X72364209Y-119843204D01*
X72364209Y-119843204D02*
X72411828Y-119938442D01*
X72411828Y-119938442D02*
X72411828Y-120319394D01*
X71888019Y-118843204D02*
X71888019Y-119319394D01*
X71888019Y-119319394D02*
X72364209Y-119367013D01*
X72364209Y-119367013D02*
X72316590Y-119319394D01*
X72316590Y-119319394D02*
X72268971Y-119224156D01*
X72268971Y-119224156D02*
X72268971Y-118986061D01*
X72268971Y-118986061D02*
X72316590Y-118890823D01*
X72316590Y-118890823D02*
X72364209Y-118843204D01*
X72364209Y-118843204D02*
X72459447Y-118795585D01*
X72459447Y-118795585D02*
X72697542Y-118795585D01*
X72697542Y-118795585D02*
X72792780Y-118843204D01*
X72792780Y-118843204D02*
X72840400Y-118890823D01*
X72840400Y-118890823D02*
X72888019Y-118986061D01*
X72888019Y-118986061D02*
X72888019Y-119224156D01*
X72888019Y-119224156D02*
X72840400Y-119319394D01*
X72840400Y-119319394D02*
X72792780Y-119367013D01*
X82252780Y-61663966D02*
X82300400Y-61711585D01*
X82300400Y-61711585D02*
X82348019Y-61854442D01*
X82348019Y-61854442D02*
X82348019Y-61949680D01*
X82348019Y-61949680D02*
X82300400Y-62092537D01*
X82300400Y-62092537D02*
X82205161Y-62187775D01*
X82205161Y-62187775D02*
X82109923Y-62235394D01*
X82109923Y-62235394D02*
X81919447Y-62283013D01*
X81919447Y-62283013D02*
X81776590Y-62283013D01*
X81776590Y-62283013D02*
X81586114Y-62235394D01*
X81586114Y-62235394D02*
X81490876Y-62187775D01*
X81490876Y-62187775D02*
X81395638Y-62092537D01*
X81395638Y-62092537D02*
X81348019Y-61949680D01*
X81348019Y-61949680D02*
X81348019Y-61854442D01*
X81348019Y-61854442D02*
X81395638Y-61711585D01*
X81395638Y-61711585D02*
X81443257Y-61663966D01*
X81348019Y-60759204D02*
X81348019Y-61235394D01*
X81348019Y-61235394D02*
X81824209Y-61283013D01*
X81824209Y-61283013D02*
X81776590Y-61235394D01*
X81776590Y-61235394D02*
X81728971Y-61140156D01*
X81728971Y-61140156D02*
X81728971Y-60902061D01*
X81728971Y-60902061D02*
X81776590Y-60806823D01*
X81776590Y-60806823D02*
X81824209Y-60759204D01*
X81824209Y-60759204D02*
X81919447Y-60711585D01*
X81919447Y-60711585D02*
X82157542Y-60711585D01*
X82157542Y-60711585D02*
X82252780Y-60759204D01*
X82252780Y-60759204D02*
X82300400Y-60806823D01*
X82300400Y-60806823D02*
X82348019Y-60902061D01*
X82348019Y-60902061D02*
X82348019Y-61140156D01*
X82348019Y-61140156D02*
X82300400Y-61235394D01*
X82300400Y-61235394D02*
X82252780Y-61283013D01*
X58755795Y-71247619D02*
X58755795Y-72057142D01*
X58755795Y-72057142D02*
X58803414Y-72152380D01*
X58803414Y-72152380D02*
X58851033Y-72200000D01*
X58851033Y-72200000D02*
X58946271Y-72247619D01*
X58946271Y-72247619D02*
X59136747Y-72247619D01*
X59136747Y-72247619D02*
X59231985Y-72200000D01*
X59231985Y-72200000D02*
X59279604Y-72152380D01*
X59279604Y-72152380D02*
X59327223Y-72057142D01*
X59327223Y-72057142D02*
X59327223Y-71247619D01*
X59851033Y-72247619D02*
X60041509Y-72247619D01*
X60041509Y-72247619D02*
X60136747Y-72200000D01*
X60136747Y-72200000D02*
X60184366Y-72152380D01*
X60184366Y-72152380D02*
X60279604Y-72009523D01*
X60279604Y-72009523D02*
X60327223Y-71819047D01*
X60327223Y-71819047D02*
X60327223Y-71438095D01*
X60327223Y-71438095D02*
X60279604Y-71342857D01*
X60279604Y-71342857D02*
X60231985Y-71295238D01*
X60231985Y-71295238D02*
X60136747Y-71247619D01*
X60136747Y-71247619D02*
X59946271Y-71247619D01*
X59946271Y-71247619D02*
X59851033Y-71295238D01*
X59851033Y-71295238D02*
X59803414Y-71342857D01*
X59803414Y-71342857D02*
X59755795Y-71438095D01*
X59755795Y-71438095D02*
X59755795Y-71676190D01*
X59755795Y-71676190D02*
X59803414Y-71771428D01*
X59803414Y-71771428D02*
X59851033Y-71819047D01*
X59851033Y-71819047D02*
X59946271Y-71866666D01*
X59946271Y-71866666D02*
X60136747Y-71866666D01*
X60136747Y-71866666D02*
X60231985Y-71819047D01*
X60231985Y-71819047D02*
X60279604Y-71771428D01*
X60279604Y-71771428D02*
X60327223Y-71676190D01*
X58490795Y-53975619D02*
X58490795Y-54785142D01*
X58490795Y-54785142D02*
X58538414Y-54880380D01*
X58538414Y-54880380D02*
X58586033Y-54928000D01*
X58586033Y-54928000D02*
X58681271Y-54975619D01*
X58681271Y-54975619D02*
X58871747Y-54975619D01*
X58871747Y-54975619D02*
X58966985Y-54928000D01*
X58966985Y-54928000D02*
X59014604Y-54880380D01*
X59014604Y-54880380D02*
X59062223Y-54785142D01*
X59062223Y-54785142D02*
X59062223Y-53975619D01*
X59681271Y-54404190D02*
X59586033Y-54356571D01*
X59586033Y-54356571D02*
X59538414Y-54308952D01*
X59538414Y-54308952D02*
X59490795Y-54213714D01*
X59490795Y-54213714D02*
X59490795Y-54166095D01*
X59490795Y-54166095D02*
X59538414Y-54070857D01*
X59538414Y-54070857D02*
X59586033Y-54023238D01*
X59586033Y-54023238D02*
X59681271Y-53975619D01*
X59681271Y-53975619D02*
X59871747Y-53975619D01*
X59871747Y-53975619D02*
X59966985Y-54023238D01*
X59966985Y-54023238D02*
X60014604Y-54070857D01*
X60014604Y-54070857D02*
X60062223Y-54166095D01*
X60062223Y-54166095D02*
X60062223Y-54213714D01*
X60062223Y-54213714D02*
X60014604Y-54308952D01*
X60014604Y-54308952D02*
X59966985Y-54356571D01*
X59966985Y-54356571D02*
X59871747Y-54404190D01*
X59871747Y-54404190D02*
X59681271Y-54404190D01*
X59681271Y-54404190D02*
X59586033Y-54451809D01*
X59586033Y-54451809D02*
X59538414Y-54499428D01*
X59538414Y-54499428D02*
X59490795Y-54594666D01*
X59490795Y-54594666D02*
X59490795Y-54785142D01*
X59490795Y-54785142D02*
X59538414Y-54880380D01*
X59538414Y-54880380D02*
X59586033Y-54928000D01*
X59586033Y-54928000D02*
X59681271Y-54975619D01*
X59681271Y-54975619D02*
X59871747Y-54975619D01*
X59871747Y-54975619D02*
X59966985Y-54928000D01*
X59966985Y-54928000D02*
X60014604Y-54880380D01*
X60014604Y-54880380D02*
X60062223Y-54785142D01*
X60062223Y-54785142D02*
X60062223Y-54594666D01*
X60062223Y-54594666D02*
X60014604Y-54499428D01*
X60014604Y-54499428D02*
X59966985Y-54451809D01*
X59966985Y-54451809D02*
X59871747Y-54404190D01*
X85933795Y-122007619D02*
X85933795Y-122817142D01*
X85933795Y-122817142D02*
X85981414Y-122912380D01*
X85981414Y-122912380D02*
X86029033Y-122960000D01*
X86029033Y-122960000D02*
X86124271Y-123007619D01*
X86124271Y-123007619D02*
X86314747Y-123007619D01*
X86314747Y-123007619D02*
X86409985Y-122960000D01*
X86409985Y-122960000D02*
X86457604Y-122912380D01*
X86457604Y-122912380D02*
X86505223Y-122817142D01*
X86505223Y-122817142D02*
X86505223Y-122007619D01*
X86886176Y-122007619D02*
X87552842Y-122007619D01*
X87552842Y-122007619D02*
X87124271Y-123007619D01*
X58744795Y-127061619D02*
X58744795Y-127871142D01*
X58744795Y-127871142D02*
X58792414Y-127966380D01*
X58792414Y-127966380D02*
X58840033Y-128014000D01*
X58840033Y-128014000D02*
X58935271Y-128061619D01*
X58935271Y-128061619D02*
X59125747Y-128061619D01*
X59125747Y-128061619D02*
X59220985Y-128014000D01*
X59220985Y-128014000D02*
X59268604Y-127966380D01*
X59268604Y-127966380D02*
X59316223Y-127871142D01*
X59316223Y-127871142D02*
X59316223Y-127061619D01*
X60220985Y-127061619D02*
X60030509Y-127061619D01*
X60030509Y-127061619D02*
X59935271Y-127109238D01*
X59935271Y-127109238D02*
X59887652Y-127156857D01*
X59887652Y-127156857D02*
X59792414Y-127299714D01*
X59792414Y-127299714D02*
X59744795Y-127490190D01*
X59744795Y-127490190D02*
X59744795Y-127871142D01*
X59744795Y-127871142D02*
X59792414Y-127966380D01*
X59792414Y-127966380D02*
X59840033Y-128014000D01*
X59840033Y-128014000D02*
X59935271Y-128061619D01*
X59935271Y-128061619D02*
X60125747Y-128061619D01*
X60125747Y-128061619D02*
X60220985Y-128014000D01*
X60220985Y-128014000D02*
X60268604Y-127966380D01*
X60268604Y-127966380D02*
X60316223Y-127871142D01*
X60316223Y-127871142D02*
X60316223Y-127633047D01*
X60316223Y-127633047D02*
X60268604Y-127537809D01*
X60268604Y-127537809D02*
X60220985Y-127490190D01*
X60220985Y-127490190D02*
X60125747Y-127442571D01*
X60125747Y-127442571D02*
X59935271Y-127442571D01*
X59935271Y-127442571D02*
X59840033Y-127490190D01*
X59840033Y-127490190D02*
X59792414Y-127537809D01*
X59792414Y-127537809D02*
X59744795Y-127633047D01*
X58744795Y-109789619D02*
X58744795Y-110599142D01*
X58744795Y-110599142D02*
X58792414Y-110694380D01*
X58792414Y-110694380D02*
X58840033Y-110742000D01*
X58840033Y-110742000D02*
X58935271Y-110789619D01*
X58935271Y-110789619D02*
X59125747Y-110789619D01*
X59125747Y-110789619D02*
X59220985Y-110742000D01*
X59220985Y-110742000D02*
X59268604Y-110694380D01*
X59268604Y-110694380D02*
X59316223Y-110599142D01*
X59316223Y-110599142D02*
X59316223Y-109789619D01*
X60268604Y-109789619D02*
X59792414Y-109789619D01*
X59792414Y-109789619D02*
X59744795Y-110265809D01*
X59744795Y-110265809D02*
X59792414Y-110218190D01*
X59792414Y-110218190D02*
X59887652Y-110170571D01*
X59887652Y-110170571D02*
X60125747Y-110170571D01*
X60125747Y-110170571D02*
X60220985Y-110218190D01*
X60220985Y-110218190D02*
X60268604Y-110265809D01*
X60268604Y-110265809D02*
X60316223Y-110361047D01*
X60316223Y-110361047D02*
X60316223Y-110599142D01*
X60316223Y-110599142D02*
X60268604Y-110694380D01*
X60268604Y-110694380D02*
X60220985Y-110742000D01*
X60220985Y-110742000D02*
X60125747Y-110789619D01*
X60125747Y-110789619D02*
X59887652Y-110789619D01*
X59887652Y-110789619D02*
X59792414Y-110742000D01*
X59792414Y-110742000D02*
X59744795Y-110694380D01*
X58744795Y-92517619D02*
X58744795Y-93327142D01*
X58744795Y-93327142D02*
X58792414Y-93422380D01*
X58792414Y-93422380D02*
X58840033Y-93470000D01*
X58840033Y-93470000D02*
X58935271Y-93517619D01*
X58935271Y-93517619D02*
X59125747Y-93517619D01*
X59125747Y-93517619D02*
X59220985Y-93470000D01*
X59220985Y-93470000D02*
X59268604Y-93422380D01*
X59268604Y-93422380D02*
X59316223Y-93327142D01*
X59316223Y-93327142D02*
X59316223Y-92517619D01*
X60220985Y-92850952D02*
X60220985Y-93517619D01*
X59982890Y-92470000D02*
X59744795Y-93184285D01*
X59744795Y-93184285D02*
X60363842Y-93184285D01*
X88898019Y-125352133D02*
X89612304Y-125352133D01*
X89612304Y-125352133D02*
X89755161Y-125399752D01*
X89755161Y-125399752D02*
X89850400Y-125494990D01*
X89850400Y-125494990D02*
X89898019Y-125637847D01*
X89898019Y-125637847D02*
X89898019Y-125733085D01*
X89231352Y-124447371D02*
X89898019Y-124447371D01*
X88850400Y-124685466D02*
X89564685Y-124923561D01*
X89564685Y-124923561D02*
X89564685Y-124304514D01*
X89618780Y-130001157D02*
X89666400Y-130048776D01*
X89666400Y-130048776D02*
X89714019Y-130191633D01*
X89714019Y-130191633D02*
X89714019Y-130286871D01*
X89714019Y-130286871D02*
X89666400Y-130429728D01*
X89666400Y-130429728D02*
X89571161Y-130524966D01*
X89571161Y-130524966D02*
X89475923Y-130572585D01*
X89475923Y-130572585D02*
X89285447Y-130620204D01*
X89285447Y-130620204D02*
X89142590Y-130620204D01*
X89142590Y-130620204D02*
X88952114Y-130572585D01*
X88952114Y-130572585D02*
X88856876Y-130524966D01*
X88856876Y-130524966D02*
X88761638Y-130429728D01*
X88761638Y-130429728D02*
X88714019Y-130286871D01*
X88714019Y-130286871D02*
X88714019Y-130191633D01*
X88714019Y-130191633D02*
X88761638Y-130048776D01*
X88761638Y-130048776D02*
X88809257Y-130001157D01*
X89714019Y-129048776D02*
X89714019Y-129620204D01*
X89714019Y-129334490D02*
X88714019Y-129334490D01*
X88714019Y-129334490D02*
X88856876Y-129429728D01*
X88856876Y-129429728D02*
X88952114Y-129524966D01*
X88952114Y-129524966D02*
X88999733Y-129620204D01*
X88714019Y-128429728D02*
X88714019Y-128334490D01*
X88714019Y-128334490D02*
X88761638Y-128239252D01*
X88761638Y-128239252D02*
X88809257Y-128191633D01*
X88809257Y-128191633D02*
X88904495Y-128144014D01*
X88904495Y-128144014D02*
X89094971Y-128096395D01*
X89094971Y-128096395D02*
X89333066Y-128096395D01*
X89333066Y-128096395D02*
X89523542Y-128144014D01*
X89523542Y-128144014D02*
X89618780Y-128191633D01*
X89618780Y-128191633D02*
X89666400Y-128239252D01*
X89666400Y-128239252D02*
X89714019Y-128334490D01*
X89714019Y-128334490D02*
X89714019Y-128429728D01*
X89714019Y-128429728D02*
X89666400Y-128524966D01*
X89666400Y-128524966D02*
X89618780Y-128572585D01*
X89618780Y-128572585D02*
X89523542Y-128620204D01*
X89523542Y-128620204D02*
X89333066Y-128667823D01*
X89333066Y-128667823D02*
X89094971Y-128667823D01*
X89094971Y-128667823D02*
X88904495Y-128620204D01*
X88904495Y-128620204D02*
X88809257Y-128572585D01*
X88809257Y-128572585D02*
X88761638Y-128524966D01*
X88761638Y-128524966D02*
X88714019Y-128429728D01*
X74124780Y-61663966D02*
X74172400Y-61711585D01*
X74172400Y-61711585D02*
X74220019Y-61854442D01*
X74220019Y-61854442D02*
X74220019Y-61949680D01*
X74220019Y-61949680D02*
X74172400Y-62092537D01*
X74172400Y-62092537D02*
X74077161Y-62187775D01*
X74077161Y-62187775D02*
X73981923Y-62235394D01*
X73981923Y-62235394D02*
X73791447Y-62283013D01*
X73791447Y-62283013D02*
X73648590Y-62283013D01*
X73648590Y-62283013D02*
X73458114Y-62235394D01*
X73458114Y-62235394D02*
X73362876Y-62187775D01*
X73362876Y-62187775D02*
X73267638Y-62092537D01*
X73267638Y-62092537D02*
X73220019Y-61949680D01*
X73220019Y-61949680D02*
X73220019Y-61854442D01*
X73220019Y-61854442D02*
X73267638Y-61711585D01*
X73267638Y-61711585D02*
X73315257Y-61663966D01*
X73220019Y-60806823D02*
X73220019Y-60997299D01*
X73220019Y-60997299D02*
X73267638Y-61092537D01*
X73267638Y-61092537D02*
X73315257Y-61140156D01*
X73315257Y-61140156D02*
X73458114Y-61235394D01*
X73458114Y-61235394D02*
X73648590Y-61283013D01*
X73648590Y-61283013D02*
X74029542Y-61283013D01*
X74029542Y-61283013D02*
X74124780Y-61235394D01*
X74124780Y-61235394D02*
X74172400Y-61187775D01*
X74172400Y-61187775D02*
X74220019Y-61092537D01*
X74220019Y-61092537D02*
X74220019Y-60902061D01*
X74220019Y-60902061D02*
X74172400Y-60806823D01*
X74172400Y-60806823D02*
X74124780Y-60759204D01*
X74124780Y-60759204D02*
X74029542Y-60711585D01*
X74029542Y-60711585D02*
X73791447Y-60711585D01*
X73791447Y-60711585D02*
X73696209Y-60759204D01*
X73696209Y-60759204D02*
X73648590Y-60806823D01*
X73648590Y-60806823D02*
X73600971Y-60902061D01*
X73600971Y-60902061D02*
X73600971Y-61092537D01*
X73600971Y-61092537D02*
X73648590Y-61187775D01*
X73648590Y-61187775D02*
X73696209Y-61235394D01*
X73696209Y-61235394D02*
X73791447Y-61283013D01*
X74066780Y-58076157D02*
X74114400Y-58123776D01*
X74114400Y-58123776D02*
X74162019Y-58266633D01*
X74162019Y-58266633D02*
X74162019Y-58361871D01*
X74162019Y-58361871D02*
X74114400Y-58504728D01*
X74114400Y-58504728D02*
X74019161Y-58599966D01*
X74019161Y-58599966D02*
X73923923Y-58647585D01*
X73923923Y-58647585D02*
X73733447Y-58695204D01*
X73733447Y-58695204D02*
X73590590Y-58695204D01*
X73590590Y-58695204D02*
X73400114Y-58647585D01*
X73400114Y-58647585D02*
X73304876Y-58599966D01*
X73304876Y-58599966D02*
X73209638Y-58504728D01*
X73209638Y-58504728D02*
X73162019Y-58361871D01*
X73162019Y-58361871D02*
X73162019Y-58266633D01*
X73162019Y-58266633D02*
X73209638Y-58123776D01*
X73209638Y-58123776D02*
X73257257Y-58076157D01*
X74162019Y-57123776D02*
X74162019Y-57695204D01*
X74162019Y-57409490D02*
X73162019Y-57409490D01*
X73162019Y-57409490D02*
X73304876Y-57504728D01*
X73304876Y-57504728D02*
X73400114Y-57599966D01*
X73400114Y-57599966D02*
X73447733Y-57695204D01*
X73162019Y-56790442D02*
X73162019Y-56171395D01*
X73162019Y-56171395D02*
X73542971Y-56504728D01*
X73542971Y-56504728D02*
X73542971Y-56361871D01*
X73542971Y-56361871D02*
X73590590Y-56266633D01*
X73590590Y-56266633D02*
X73638209Y-56219014D01*
X73638209Y-56219014D02*
X73733447Y-56171395D01*
X73733447Y-56171395D02*
X73971542Y-56171395D01*
X73971542Y-56171395D02*
X74066780Y-56219014D01*
X74066780Y-56219014D02*
X74114400Y-56266633D01*
X74114400Y-56266633D02*
X74162019Y-56361871D01*
X74162019Y-56361871D02*
X74162019Y-56647585D01*
X74162019Y-56647585D02*
X74114400Y-56742823D01*
X74114400Y-56742823D02*
X74066780Y-56790442D01*
X57107980Y-86305966D02*
X57155600Y-86353585D01*
X57155600Y-86353585D02*
X57203219Y-86496442D01*
X57203219Y-86496442D02*
X57203219Y-86591680D01*
X57203219Y-86591680D02*
X57155600Y-86734537D01*
X57155600Y-86734537D02*
X57060361Y-86829775D01*
X57060361Y-86829775D02*
X56965123Y-86877394D01*
X56965123Y-86877394D02*
X56774647Y-86925013D01*
X56774647Y-86925013D02*
X56631790Y-86925013D01*
X56631790Y-86925013D02*
X56441314Y-86877394D01*
X56441314Y-86877394D02*
X56346076Y-86829775D01*
X56346076Y-86829775D02*
X56250838Y-86734537D01*
X56250838Y-86734537D02*
X56203219Y-86591680D01*
X56203219Y-86591680D02*
X56203219Y-86496442D01*
X56203219Y-86496442D02*
X56250838Y-86353585D01*
X56250838Y-86353585D02*
X56298457Y-86305966D01*
X56203219Y-85972632D02*
X56203219Y-85305966D01*
X56203219Y-85305966D02*
X57203219Y-85734537D01*
X57107980Y-103577966D02*
X57155600Y-103625585D01*
X57155600Y-103625585D02*
X57203219Y-103768442D01*
X57203219Y-103768442D02*
X57203219Y-103863680D01*
X57203219Y-103863680D02*
X57155600Y-104006537D01*
X57155600Y-104006537D02*
X57060361Y-104101775D01*
X57060361Y-104101775D02*
X56965123Y-104149394D01*
X56965123Y-104149394D02*
X56774647Y-104197013D01*
X56774647Y-104197013D02*
X56631790Y-104197013D01*
X56631790Y-104197013D02*
X56441314Y-104149394D01*
X56441314Y-104149394D02*
X56346076Y-104101775D01*
X56346076Y-104101775D02*
X56250838Y-104006537D01*
X56250838Y-104006537D02*
X56203219Y-103863680D01*
X56203219Y-103863680D02*
X56203219Y-103768442D01*
X56203219Y-103768442D02*
X56250838Y-103625585D01*
X56250838Y-103625585D02*
X56298457Y-103577966D01*
X56631790Y-103006537D02*
X56584171Y-103101775D01*
X56584171Y-103101775D02*
X56536552Y-103149394D01*
X56536552Y-103149394D02*
X56441314Y-103197013D01*
X56441314Y-103197013D02*
X56393695Y-103197013D01*
X56393695Y-103197013D02*
X56298457Y-103149394D01*
X56298457Y-103149394D02*
X56250838Y-103101775D01*
X56250838Y-103101775D02*
X56203219Y-103006537D01*
X56203219Y-103006537D02*
X56203219Y-102816061D01*
X56203219Y-102816061D02*
X56250838Y-102720823D01*
X56250838Y-102720823D02*
X56298457Y-102673204D01*
X56298457Y-102673204D02*
X56393695Y-102625585D01*
X56393695Y-102625585D02*
X56441314Y-102625585D01*
X56441314Y-102625585D02*
X56536552Y-102673204D01*
X56536552Y-102673204D02*
X56584171Y-102720823D01*
X56584171Y-102720823D02*
X56631790Y-102816061D01*
X56631790Y-102816061D02*
X56631790Y-103006537D01*
X56631790Y-103006537D02*
X56679409Y-103101775D01*
X56679409Y-103101775D02*
X56727028Y-103149394D01*
X56727028Y-103149394D02*
X56822266Y-103197013D01*
X56822266Y-103197013D02*
X57012742Y-103197013D01*
X57012742Y-103197013D02*
X57107980Y-103149394D01*
X57107980Y-103149394D02*
X57155600Y-103101775D01*
X57155600Y-103101775D02*
X57203219Y-103006537D01*
X57203219Y-103006537D02*
X57203219Y-102816061D01*
X57203219Y-102816061D02*
X57155600Y-102720823D01*
X57155600Y-102720823D02*
X57107980Y-102673204D01*
X57107980Y-102673204D02*
X57012742Y-102625585D01*
X57012742Y-102625585D02*
X56822266Y-102625585D01*
X56822266Y-102625585D02*
X56727028Y-102673204D01*
X56727028Y-102673204D02*
X56679409Y-102720823D01*
X56679409Y-102720823D02*
X56631790Y-102816061D01*
X60693219Y-47856894D02*
X59693219Y-47856894D01*
X59693219Y-47856894D02*
X59693219Y-47618799D01*
X59693219Y-47618799D02*
X59740838Y-47475942D01*
X59740838Y-47475942D02*
X59836076Y-47380704D01*
X59836076Y-47380704D02*
X59931314Y-47333085D01*
X59931314Y-47333085D02*
X60121790Y-47285466D01*
X60121790Y-47285466D02*
X60264647Y-47285466D01*
X60264647Y-47285466D02*
X60455123Y-47333085D01*
X60455123Y-47333085D02*
X60550361Y-47380704D01*
X60550361Y-47380704D02*
X60645600Y-47475942D01*
X60645600Y-47475942D02*
X60693219Y-47618799D01*
X60693219Y-47618799D02*
X60693219Y-47856894D01*
X59693219Y-46428323D02*
X59693219Y-46618799D01*
X59693219Y-46618799D02*
X59740838Y-46714037D01*
X59740838Y-46714037D02*
X59788457Y-46761656D01*
X59788457Y-46761656D02*
X59931314Y-46856894D01*
X59931314Y-46856894D02*
X60121790Y-46904513D01*
X60121790Y-46904513D02*
X60502742Y-46904513D01*
X60502742Y-46904513D02*
X60597980Y-46856894D01*
X60597980Y-46856894D02*
X60645600Y-46809275D01*
X60645600Y-46809275D02*
X60693219Y-46714037D01*
X60693219Y-46714037D02*
X60693219Y-46523561D01*
X60693219Y-46523561D02*
X60645600Y-46428323D01*
X60645600Y-46428323D02*
X60597980Y-46380704D01*
X60597980Y-46380704D02*
X60502742Y-46333085D01*
X60502742Y-46333085D02*
X60264647Y-46333085D01*
X60264647Y-46333085D02*
X60169409Y-46380704D01*
X60169409Y-46380704D02*
X60121790Y-46428323D01*
X60121790Y-46428323D02*
X60074171Y-46523561D01*
X60074171Y-46523561D02*
X60074171Y-46714037D01*
X60074171Y-46714037D02*
X60121790Y-46809275D01*
X60121790Y-46809275D02*
X60169409Y-46856894D01*
X60169409Y-46856894D02*
X60264647Y-46904513D01*
X57048780Y-120849966D02*
X57096400Y-120897585D01*
X57096400Y-120897585D02*
X57144019Y-121040442D01*
X57144019Y-121040442D02*
X57144019Y-121135680D01*
X57144019Y-121135680D02*
X57096400Y-121278537D01*
X57096400Y-121278537D02*
X57001161Y-121373775D01*
X57001161Y-121373775D02*
X56905923Y-121421394D01*
X56905923Y-121421394D02*
X56715447Y-121469013D01*
X56715447Y-121469013D02*
X56572590Y-121469013D01*
X56572590Y-121469013D02*
X56382114Y-121421394D01*
X56382114Y-121421394D02*
X56286876Y-121373775D01*
X56286876Y-121373775D02*
X56191638Y-121278537D01*
X56191638Y-121278537D02*
X56144019Y-121135680D01*
X56144019Y-121135680D02*
X56144019Y-121040442D01*
X56144019Y-121040442D02*
X56191638Y-120897585D01*
X56191638Y-120897585D02*
X56239257Y-120849966D01*
X57144019Y-120373775D02*
X57144019Y-120183299D01*
X57144019Y-120183299D02*
X57096400Y-120088061D01*
X57096400Y-120088061D02*
X57048780Y-120040442D01*
X57048780Y-120040442D02*
X56905923Y-119945204D01*
X56905923Y-119945204D02*
X56715447Y-119897585D01*
X56715447Y-119897585D02*
X56334495Y-119897585D01*
X56334495Y-119897585D02*
X56239257Y-119945204D01*
X56239257Y-119945204D02*
X56191638Y-119992823D01*
X56191638Y-119992823D02*
X56144019Y-120088061D01*
X56144019Y-120088061D02*
X56144019Y-120278537D01*
X56144019Y-120278537D02*
X56191638Y-120373775D01*
X56191638Y-120373775D02*
X56239257Y-120421394D01*
X56239257Y-120421394D02*
X56334495Y-120469013D01*
X56334495Y-120469013D02*
X56572590Y-120469013D01*
X56572590Y-120469013D02*
X56667828Y-120421394D01*
X56667828Y-120421394D02*
X56715447Y-120373775D01*
X56715447Y-120373775D02*
X56763066Y-120278537D01*
X56763066Y-120278537D02*
X56763066Y-120088061D01*
X56763066Y-120088061D02*
X56715447Y-119992823D01*
X56715447Y-119992823D02*
X56667828Y-119945204D01*
X56667828Y-119945204D02*
X56572590Y-119897585D01*
X56794780Y-48174157D02*
X56842400Y-48221776D01*
X56842400Y-48221776D02*
X56890019Y-48364633D01*
X56890019Y-48364633D02*
X56890019Y-48459871D01*
X56890019Y-48459871D02*
X56842400Y-48602728D01*
X56842400Y-48602728D02*
X56747161Y-48697966D01*
X56747161Y-48697966D02*
X56651923Y-48745585D01*
X56651923Y-48745585D02*
X56461447Y-48793204D01*
X56461447Y-48793204D02*
X56318590Y-48793204D01*
X56318590Y-48793204D02*
X56128114Y-48745585D01*
X56128114Y-48745585D02*
X56032876Y-48697966D01*
X56032876Y-48697966D02*
X55937638Y-48602728D01*
X55937638Y-48602728D02*
X55890019Y-48459871D01*
X55890019Y-48459871D02*
X55890019Y-48364633D01*
X55890019Y-48364633D02*
X55937638Y-48221776D01*
X55937638Y-48221776D02*
X55985257Y-48174157D01*
X56890019Y-47221776D02*
X56890019Y-47793204D01*
X56890019Y-47507490D02*
X55890019Y-47507490D01*
X55890019Y-47507490D02*
X56032876Y-47602728D01*
X56032876Y-47602728D02*
X56128114Y-47697966D01*
X56128114Y-47697966D02*
X56175733Y-47793204D01*
X56890019Y-46269395D02*
X56890019Y-46840823D01*
X56890019Y-46555109D02*
X55890019Y-46555109D01*
X55890019Y-46555109D02*
X56032876Y-46650347D01*
X56032876Y-46650347D02*
X56128114Y-46745585D01*
X56128114Y-46745585D02*
X56175733Y-46840823D01*
X57107980Y-65446157D02*
X57155600Y-65493776D01*
X57155600Y-65493776D02*
X57203219Y-65636633D01*
X57203219Y-65636633D02*
X57203219Y-65731871D01*
X57203219Y-65731871D02*
X57155600Y-65874728D01*
X57155600Y-65874728D02*
X57060361Y-65969966D01*
X57060361Y-65969966D02*
X56965123Y-66017585D01*
X56965123Y-66017585D02*
X56774647Y-66065204D01*
X56774647Y-66065204D02*
X56631790Y-66065204D01*
X56631790Y-66065204D02*
X56441314Y-66017585D01*
X56441314Y-66017585D02*
X56346076Y-65969966D01*
X56346076Y-65969966D02*
X56250838Y-65874728D01*
X56250838Y-65874728D02*
X56203219Y-65731871D01*
X56203219Y-65731871D02*
X56203219Y-65636633D01*
X56203219Y-65636633D02*
X56250838Y-65493776D01*
X56250838Y-65493776D02*
X56298457Y-65446157D01*
X57203219Y-64493776D02*
X57203219Y-65065204D01*
X57203219Y-64779490D02*
X56203219Y-64779490D01*
X56203219Y-64779490D02*
X56346076Y-64874728D01*
X56346076Y-64874728D02*
X56441314Y-64969966D01*
X56441314Y-64969966D02*
X56488933Y-65065204D01*
X56298457Y-64112823D02*
X56250838Y-64065204D01*
X56250838Y-64065204D02*
X56203219Y-63969966D01*
X56203219Y-63969966D02*
X56203219Y-63731871D01*
X56203219Y-63731871D02*
X56250838Y-63636633D01*
X56250838Y-63636633D02*
X56298457Y-63589014D01*
X56298457Y-63589014D02*
X56393695Y-63541395D01*
X56393695Y-63541395D02*
X56488933Y-63541395D01*
X56488933Y-63541395D02*
X56631790Y-63589014D01*
X56631790Y-63589014D02*
X57203219Y-64160442D01*
X57203219Y-64160442D02*
X57203219Y-63541395D01*
X60693219Y-65128894D02*
X59693219Y-65128894D01*
X59693219Y-65128894D02*
X59693219Y-64890799D01*
X59693219Y-64890799D02*
X59740838Y-64747942D01*
X59740838Y-64747942D02*
X59836076Y-64652704D01*
X59836076Y-64652704D02*
X59931314Y-64605085D01*
X59931314Y-64605085D02*
X60121790Y-64557466D01*
X60121790Y-64557466D02*
X60264647Y-64557466D01*
X60264647Y-64557466D02*
X60455123Y-64605085D01*
X60455123Y-64605085D02*
X60550361Y-64652704D01*
X60550361Y-64652704D02*
X60645600Y-64747942D01*
X60645600Y-64747942D02*
X60693219Y-64890799D01*
X60693219Y-64890799D02*
X60693219Y-65128894D01*
X59693219Y-64224132D02*
X59693219Y-63557466D01*
X59693219Y-63557466D02*
X60693219Y-63986037D01*
X78951533Y-113775380D02*
X78903914Y-113823000D01*
X78903914Y-113823000D02*
X78761057Y-113870619D01*
X78761057Y-113870619D02*
X78665819Y-113870619D01*
X78665819Y-113870619D02*
X78522962Y-113823000D01*
X78522962Y-113823000D02*
X78427724Y-113727761D01*
X78427724Y-113727761D02*
X78380105Y-113632523D01*
X78380105Y-113632523D02*
X78332486Y-113442047D01*
X78332486Y-113442047D02*
X78332486Y-113299190D01*
X78332486Y-113299190D02*
X78380105Y-113108714D01*
X78380105Y-113108714D02*
X78427724Y-113013476D01*
X78427724Y-113013476D02*
X78522962Y-112918238D01*
X78522962Y-112918238D02*
X78665819Y-112870619D01*
X78665819Y-112870619D02*
X78761057Y-112870619D01*
X78761057Y-112870619D02*
X78903914Y-112918238D01*
X78903914Y-112918238D02*
X78951533Y-112965857D01*
X79903914Y-113870619D02*
X79332486Y-113870619D01*
X79618200Y-113870619D02*
X79618200Y-112870619D01*
X79618200Y-112870619D02*
X79522962Y-113013476D01*
X79522962Y-113013476D02*
X79427724Y-113108714D01*
X79427724Y-113108714D02*
X79332486Y-113156333D01*
X79052033Y-109532380D02*
X79004414Y-109580000D01*
X79004414Y-109580000D02*
X78861557Y-109627619D01*
X78861557Y-109627619D02*
X78766319Y-109627619D01*
X78766319Y-109627619D02*
X78623462Y-109580000D01*
X78623462Y-109580000D02*
X78528224Y-109484761D01*
X78528224Y-109484761D02*
X78480605Y-109389523D01*
X78480605Y-109389523D02*
X78432986Y-109199047D01*
X78432986Y-109199047D02*
X78432986Y-109056190D01*
X78432986Y-109056190D02*
X78480605Y-108865714D01*
X78480605Y-108865714D02*
X78528224Y-108770476D01*
X78528224Y-108770476D02*
X78623462Y-108675238D01*
X78623462Y-108675238D02*
X78766319Y-108627619D01*
X78766319Y-108627619D02*
X78861557Y-108627619D01*
X78861557Y-108627619D02*
X79004414Y-108675238D01*
X79004414Y-108675238D02*
X79052033Y-108722857D01*
X79432986Y-108722857D02*
X79480605Y-108675238D01*
X79480605Y-108675238D02*
X79575843Y-108627619D01*
X79575843Y-108627619D02*
X79813938Y-108627619D01*
X79813938Y-108627619D02*
X79909176Y-108675238D01*
X79909176Y-108675238D02*
X79956795Y-108722857D01*
X79956795Y-108722857D02*
X80004414Y-108818095D01*
X80004414Y-108818095D02*
X80004414Y-108913333D01*
X80004414Y-108913333D02*
X79956795Y-109056190D01*
X79956795Y-109056190D02*
X79385367Y-109627619D01*
X79385367Y-109627619D02*
X80004414Y-109627619D01*
X69840019Y-119747966D02*
X69363828Y-120081299D01*
X69840019Y-120319394D02*
X68840019Y-120319394D01*
X68840019Y-120319394D02*
X68840019Y-119938442D01*
X68840019Y-119938442D02*
X68887638Y-119843204D01*
X68887638Y-119843204D02*
X68935257Y-119795585D01*
X68935257Y-119795585D02*
X69030495Y-119747966D01*
X69030495Y-119747966D02*
X69173352Y-119747966D01*
X69173352Y-119747966D02*
X69268590Y-119795585D01*
X69268590Y-119795585D02*
X69316209Y-119843204D01*
X69316209Y-119843204D02*
X69363828Y-119938442D01*
X69363828Y-119938442D02*
X69363828Y-120319394D01*
X69840019Y-118795585D02*
X69840019Y-119367013D01*
X69840019Y-119081299D02*
X68840019Y-119081299D01*
X68840019Y-119081299D02*
X68982876Y-119176537D01*
X68982876Y-119176537D02*
X69078114Y-119271775D01*
X69078114Y-119271775D02*
X69125733Y-119367013D01*
X75936019Y-119747966D02*
X75459828Y-120081299D01*
X75936019Y-120319394D02*
X74936019Y-120319394D01*
X74936019Y-120319394D02*
X74936019Y-119938442D01*
X74936019Y-119938442D02*
X74983638Y-119843204D01*
X74983638Y-119843204D02*
X75031257Y-119795585D01*
X75031257Y-119795585D02*
X75126495Y-119747966D01*
X75126495Y-119747966D02*
X75269352Y-119747966D01*
X75269352Y-119747966D02*
X75364590Y-119795585D01*
X75364590Y-119795585D02*
X75412209Y-119843204D01*
X75412209Y-119843204D02*
X75459828Y-119938442D01*
X75459828Y-119938442D02*
X75459828Y-120319394D01*
X75364590Y-119176537D02*
X75316971Y-119271775D01*
X75316971Y-119271775D02*
X75269352Y-119319394D01*
X75269352Y-119319394D02*
X75174114Y-119367013D01*
X75174114Y-119367013D02*
X75126495Y-119367013D01*
X75126495Y-119367013D02*
X75031257Y-119319394D01*
X75031257Y-119319394D02*
X74983638Y-119271775D01*
X74983638Y-119271775D02*
X74936019Y-119176537D01*
X74936019Y-119176537D02*
X74936019Y-118986061D01*
X74936019Y-118986061D02*
X74983638Y-118890823D01*
X74983638Y-118890823D02*
X75031257Y-118843204D01*
X75031257Y-118843204D02*
X75126495Y-118795585D01*
X75126495Y-118795585D02*
X75174114Y-118795585D01*
X75174114Y-118795585D02*
X75269352Y-118843204D01*
X75269352Y-118843204D02*
X75316971Y-118890823D01*
X75316971Y-118890823D02*
X75364590Y-118986061D01*
X75364590Y-118986061D02*
X75364590Y-119176537D01*
X75364590Y-119176537D02*
X75412209Y-119271775D01*
X75412209Y-119271775D02*
X75459828Y-119319394D01*
X75459828Y-119319394D02*
X75555066Y-119367013D01*
X75555066Y-119367013D02*
X75745542Y-119367013D01*
X75745542Y-119367013D02*
X75840780Y-119319394D01*
X75840780Y-119319394D02*
X75888400Y-119271775D01*
X75888400Y-119271775D02*
X75936019Y-119176537D01*
X75936019Y-119176537D02*
X75936019Y-118986061D01*
X75936019Y-118986061D02*
X75888400Y-118890823D01*
X75888400Y-118890823D02*
X75840780Y-118843204D01*
X75840780Y-118843204D02*
X75745542Y-118795585D01*
X75745542Y-118795585D02*
X75555066Y-118795585D01*
X75555066Y-118795585D02*
X75459828Y-118843204D01*
X75459828Y-118843204D02*
X75412209Y-118890823D01*
X75412209Y-118890823D02*
X75364590Y-118986061D01*
X72593295Y-105111619D02*
X72593295Y-105921142D01*
X72593295Y-105921142D02*
X72640914Y-106016380D01*
X72640914Y-106016380D02*
X72688533Y-106064000D01*
X72688533Y-106064000D02*
X72783771Y-106111619D01*
X72783771Y-106111619D02*
X72974247Y-106111619D01*
X72974247Y-106111619D02*
X73069485Y-106064000D01*
X73069485Y-106064000D02*
X73117104Y-106016380D01*
X73117104Y-106016380D02*
X73164723Y-105921142D01*
X73164723Y-105921142D02*
X73164723Y-105111619D01*
X74164723Y-106111619D02*
X73593295Y-106111619D01*
X73879009Y-106111619D02*
X73879009Y-105111619D01*
X73879009Y-105111619D02*
X73783771Y-105254476D01*
X73783771Y-105254476D02*
X73688533Y-105349714D01*
X73688533Y-105349714D02*
X73593295Y-105397333D01*
X78984019Y-119700966D02*
X78507828Y-120034299D01*
X78984019Y-120272394D02*
X77984019Y-120272394D01*
X77984019Y-120272394D02*
X77984019Y-119891442D01*
X77984019Y-119891442D02*
X78031638Y-119796204D01*
X78031638Y-119796204D02*
X78079257Y-119748585D01*
X78079257Y-119748585D02*
X78174495Y-119700966D01*
X78174495Y-119700966D02*
X78317352Y-119700966D01*
X78317352Y-119700966D02*
X78412590Y-119748585D01*
X78412590Y-119748585D02*
X78460209Y-119796204D01*
X78460209Y-119796204D02*
X78507828Y-119891442D01*
X78507828Y-119891442D02*
X78507828Y-120272394D01*
X77984019Y-118843823D02*
X77984019Y-119034299D01*
X77984019Y-119034299D02*
X78031638Y-119129537D01*
X78031638Y-119129537D02*
X78079257Y-119177156D01*
X78079257Y-119177156D02*
X78222114Y-119272394D01*
X78222114Y-119272394D02*
X78412590Y-119320013D01*
X78412590Y-119320013D02*
X78793542Y-119320013D01*
X78793542Y-119320013D02*
X78888780Y-119272394D01*
X78888780Y-119272394D02*
X78936400Y-119224775D01*
X78936400Y-119224775D02*
X78984019Y-119129537D01*
X78984019Y-119129537D02*
X78984019Y-118939061D01*
X78984019Y-118939061D02*
X78936400Y-118843823D01*
X78936400Y-118843823D02*
X78888780Y-118796204D01*
X78888780Y-118796204D02*
X78793542Y-118748585D01*
X78793542Y-118748585D02*
X78555447Y-118748585D01*
X78555447Y-118748585D02*
X78460209Y-118796204D01*
X78460209Y-118796204D02*
X78412590Y-118843823D01*
X78412590Y-118843823D02*
X78364971Y-118939061D01*
X78364971Y-118939061D02*
X78364971Y-119129537D01*
X78364971Y-119129537D02*
X78412590Y-119224775D01*
X78412590Y-119224775D02*
X78460209Y-119272394D01*
X78460209Y-119272394D02*
X78555447Y-119320013D01*
X72664533Y-66958380D02*
X72616914Y-67006000D01*
X72616914Y-67006000D02*
X72474057Y-67053619D01*
X72474057Y-67053619D02*
X72378819Y-67053619D01*
X72378819Y-67053619D02*
X72235962Y-67006000D01*
X72235962Y-67006000D02*
X72140724Y-66910761D01*
X72140724Y-66910761D02*
X72093105Y-66815523D01*
X72093105Y-66815523D02*
X72045486Y-66625047D01*
X72045486Y-66625047D02*
X72045486Y-66482190D01*
X72045486Y-66482190D02*
X72093105Y-66291714D01*
X72093105Y-66291714D02*
X72140724Y-66196476D01*
X72140724Y-66196476D02*
X72235962Y-66101238D01*
X72235962Y-66101238D02*
X72378819Y-66053619D01*
X72378819Y-66053619D02*
X72474057Y-66053619D01*
X72474057Y-66053619D02*
X72616914Y-66101238D01*
X72616914Y-66101238D02*
X72664533Y-66148857D01*
X73521676Y-66386952D02*
X73521676Y-67053619D01*
X73283581Y-66006000D02*
X73045486Y-66720285D01*
X73045486Y-66720285D02*
X73664533Y-66720285D01*
X72702033Y-72448380D02*
X72654414Y-72496000D01*
X72654414Y-72496000D02*
X72511557Y-72543619D01*
X72511557Y-72543619D02*
X72416319Y-72543619D01*
X72416319Y-72543619D02*
X72273462Y-72496000D01*
X72273462Y-72496000D02*
X72178224Y-72400761D01*
X72178224Y-72400761D02*
X72130605Y-72305523D01*
X72130605Y-72305523D02*
X72082986Y-72115047D01*
X72082986Y-72115047D02*
X72082986Y-71972190D01*
X72082986Y-71972190D02*
X72130605Y-71781714D01*
X72130605Y-71781714D02*
X72178224Y-71686476D01*
X72178224Y-71686476D02*
X72273462Y-71591238D01*
X72273462Y-71591238D02*
X72416319Y-71543619D01*
X72416319Y-71543619D02*
X72511557Y-71543619D01*
X72511557Y-71543619D02*
X72654414Y-71591238D01*
X72654414Y-71591238D02*
X72702033Y-71638857D01*
X73035367Y-71543619D02*
X73654414Y-71543619D01*
X73654414Y-71543619D02*
X73321081Y-71924571D01*
X73321081Y-71924571D02*
X73463938Y-71924571D01*
X73463938Y-71924571D02*
X73559176Y-71972190D01*
X73559176Y-71972190D02*
X73606795Y-72019809D01*
X73606795Y-72019809D02*
X73654414Y-72115047D01*
X73654414Y-72115047D02*
X73654414Y-72353142D01*
X73654414Y-72353142D02*
X73606795Y-72448380D01*
X73606795Y-72448380D02*
X73559176Y-72496000D01*
X73559176Y-72496000D02*
X73463938Y-72543619D01*
X73463938Y-72543619D02*
X73178224Y-72543619D01*
X73178224Y-72543619D02*
X73082986Y-72496000D01*
X73082986Y-72496000D02*
X73035367Y-72448380D01*
X55706019Y-52454133D02*
X56420304Y-52454133D01*
X56420304Y-52454133D02*
X56563161Y-52501752D01*
X56563161Y-52501752D02*
X56658400Y-52596990D01*
X56658400Y-52596990D02*
X56706019Y-52739847D01*
X56706019Y-52739847D02*
X56706019Y-52835085D01*
X55706019Y-51501752D02*
X55706019Y-51977942D01*
X55706019Y-51977942D02*
X56182209Y-52025561D01*
X56182209Y-52025561D02*
X56134590Y-51977942D01*
X56134590Y-51977942D02*
X56086971Y-51882704D01*
X56086971Y-51882704D02*
X56086971Y-51644609D01*
X56086971Y-51644609D02*
X56134590Y-51549371D01*
X56134590Y-51549371D02*
X56182209Y-51501752D01*
X56182209Y-51501752D02*
X56277447Y-51454133D01*
X56277447Y-51454133D02*
X56515542Y-51454133D01*
X56515542Y-51454133D02*
X56610780Y-51501752D01*
X56610780Y-51501752D02*
X56658400Y-51549371D01*
X56658400Y-51549371D02*
X56706019Y-51644609D01*
X56706019Y-51644609D02*
X56706019Y-51882704D01*
X56706019Y-51882704D02*
X56658400Y-51977942D01*
X56658400Y-51977942D02*
X56610780Y-52025561D01*
X55765219Y-125676133D02*
X56479504Y-125676133D01*
X56479504Y-125676133D02*
X56622361Y-125723752D01*
X56622361Y-125723752D02*
X56717600Y-125818990D01*
X56717600Y-125818990D02*
X56765219Y-125961847D01*
X56765219Y-125961847D02*
X56765219Y-126057085D01*
X55765219Y-125295180D02*
X55765219Y-124676133D01*
X55765219Y-124676133D02*
X56146171Y-125009466D01*
X56146171Y-125009466D02*
X56146171Y-124866609D01*
X56146171Y-124866609D02*
X56193790Y-124771371D01*
X56193790Y-124771371D02*
X56241409Y-124723752D01*
X56241409Y-124723752D02*
X56336647Y-124676133D01*
X56336647Y-124676133D02*
X56574742Y-124676133D01*
X56574742Y-124676133D02*
X56669980Y-124723752D01*
X56669980Y-124723752D02*
X56717600Y-124771371D01*
X56717600Y-124771371D02*
X56765219Y-124866609D01*
X56765219Y-124866609D02*
X56765219Y-125152323D01*
X56765219Y-125152323D02*
X56717600Y-125247561D01*
X56717600Y-125247561D02*
X56669980Y-125295180D01*
X55765219Y-91056133D02*
X56479504Y-91056133D01*
X56479504Y-91056133D02*
X56622361Y-91103752D01*
X56622361Y-91103752D02*
X56717600Y-91198990D01*
X56717600Y-91198990D02*
X56765219Y-91341847D01*
X56765219Y-91341847D02*
X56765219Y-91437085D01*
X56765219Y-90056133D02*
X56765219Y-90627561D01*
X56765219Y-90341847D02*
X55765219Y-90341847D01*
X55765219Y-90341847D02*
X55908076Y-90437085D01*
X55908076Y-90437085D02*
X56003314Y-90532323D01*
X56003314Y-90532323D02*
X56050933Y-90627561D01*
X55765219Y-108366133D02*
X56479504Y-108366133D01*
X56479504Y-108366133D02*
X56622361Y-108413752D01*
X56622361Y-108413752D02*
X56717600Y-108508990D01*
X56717600Y-108508990D02*
X56765219Y-108651847D01*
X56765219Y-108651847D02*
X56765219Y-108747085D01*
X55860457Y-107937561D02*
X55812838Y-107889942D01*
X55812838Y-107889942D02*
X55765219Y-107794704D01*
X55765219Y-107794704D02*
X55765219Y-107556609D01*
X55765219Y-107556609D02*
X55812838Y-107461371D01*
X55812838Y-107461371D02*
X55860457Y-107413752D01*
X55860457Y-107413752D02*
X55955695Y-107366133D01*
X55955695Y-107366133D02*
X56050933Y-107366133D01*
X56050933Y-107366133D02*
X56193790Y-107413752D01*
X56193790Y-107413752D02*
X56765219Y-107985180D01*
X56765219Y-107985180D02*
X56765219Y-107366133D01*
X55706019Y-69764133D02*
X56420304Y-69764133D01*
X56420304Y-69764133D02*
X56563161Y-69811752D01*
X56563161Y-69811752D02*
X56658400Y-69906990D01*
X56658400Y-69906990D02*
X56706019Y-70049847D01*
X56706019Y-70049847D02*
X56706019Y-70145085D01*
X55706019Y-68859371D02*
X55706019Y-69049847D01*
X55706019Y-69049847D02*
X55753638Y-69145085D01*
X55753638Y-69145085D02*
X55801257Y-69192704D01*
X55801257Y-69192704D02*
X55944114Y-69287942D01*
X55944114Y-69287942D02*
X56134590Y-69335561D01*
X56134590Y-69335561D02*
X56515542Y-69335561D01*
X56515542Y-69335561D02*
X56610780Y-69287942D01*
X56610780Y-69287942D02*
X56658400Y-69240323D01*
X56658400Y-69240323D02*
X56706019Y-69145085D01*
X56706019Y-69145085D02*
X56706019Y-68954609D01*
X56706019Y-68954609D02*
X56658400Y-68859371D01*
X56658400Y-68859371D02*
X56610780Y-68811752D01*
X56610780Y-68811752D02*
X56515542Y-68764133D01*
X56515542Y-68764133D02*
X56277447Y-68764133D01*
X56277447Y-68764133D02*
X56182209Y-68811752D01*
X56182209Y-68811752D02*
X56134590Y-68859371D01*
X56134590Y-68859371D02*
X56086971Y-68954609D01*
X56086971Y-68954609D02*
X56086971Y-69145085D01*
X56086971Y-69145085D02*
X56134590Y-69240323D01*
X56134590Y-69240323D02*
X56182209Y-69287942D01*
X56182209Y-69287942D02*
X56277447Y-69335561D01*
X75409295Y-59539619D02*
X75409295Y-60349142D01*
X75409295Y-60349142D02*
X75456914Y-60444380D01*
X75456914Y-60444380D02*
X75504533Y-60492000D01*
X75504533Y-60492000D02*
X75599771Y-60539619D01*
X75599771Y-60539619D02*
X75790247Y-60539619D01*
X75790247Y-60539619D02*
X75885485Y-60492000D01*
X75885485Y-60492000D02*
X75933104Y-60444380D01*
X75933104Y-60444380D02*
X75980723Y-60349142D01*
X75980723Y-60349142D02*
X75980723Y-59539619D01*
X76361676Y-59539619D02*
X76980723Y-59539619D01*
X76980723Y-59539619D02*
X76647390Y-59920571D01*
X76647390Y-59920571D02*
X76790247Y-59920571D01*
X76790247Y-59920571D02*
X76885485Y-59968190D01*
X76885485Y-59968190D02*
X76933104Y-60015809D01*
X76933104Y-60015809D02*
X76980723Y-60111047D01*
X76980723Y-60111047D02*
X76980723Y-60349142D01*
X76980723Y-60349142D02*
X76933104Y-60444380D01*
X76933104Y-60444380D02*
X76885485Y-60492000D01*
X76885485Y-60492000D02*
X76790247Y-60539619D01*
X76790247Y-60539619D02*
X76504533Y-60539619D01*
X76504533Y-60539619D02*
X76409295Y-60492000D01*
X76409295Y-60492000D02*
X76361676Y-60444380D01*
X65989295Y-67413619D02*
X65989295Y-68223142D01*
X65989295Y-68223142D02*
X66036914Y-68318380D01*
X66036914Y-68318380D02*
X66084533Y-68366000D01*
X66084533Y-68366000D02*
X66179771Y-68413619D01*
X66179771Y-68413619D02*
X66370247Y-68413619D01*
X66370247Y-68413619D02*
X66465485Y-68366000D01*
X66465485Y-68366000D02*
X66513104Y-68318380D01*
X66513104Y-68318380D02*
X66560723Y-68223142D01*
X66560723Y-68223142D02*
X66560723Y-67413619D01*
X66989295Y-67508857D02*
X67036914Y-67461238D01*
X67036914Y-67461238D02*
X67132152Y-67413619D01*
X67132152Y-67413619D02*
X67370247Y-67413619D01*
X67370247Y-67413619D02*
X67465485Y-67461238D01*
X67465485Y-67461238D02*
X67513104Y-67508857D01*
X67513104Y-67508857D02*
X67560723Y-67604095D01*
X67560723Y-67604095D02*
X67560723Y-67699333D01*
X67560723Y-67699333D02*
X67513104Y-67842190D01*
X67513104Y-67842190D02*
X66941676Y-68413619D01*
X66941676Y-68413619D02*
X67560723Y-68413619D01*
D12*
%TO.C,SW1*%
X96286320Y-77216000D02*
X96286320Y-84937600D01*
X91064080Y-84937600D02*
X96286320Y-84937600D01*
X91064080Y-84937600D02*
X91064080Y-77216000D01*
X91064080Y-77216000D02*
X96286320Y-77216000D01*
%TO.C,D2*%
X97384000Y-59220600D02*
X94524000Y-59220600D01*
X94524000Y-61140600D02*
X97384000Y-61140600D01*
X94524000Y-59220600D02*
X94524000Y-61140600D01*
%TO.C,D5*%
X97384000Y-68340600D02*
X94524000Y-68340600D01*
X94524000Y-70260600D02*
X97384000Y-70260600D01*
X94524000Y-68340600D02*
X94524000Y-70260600D01*
%TO.C,D1*%
X97384000Y-56180600D02*
X94524000Y-56180600D01*
X94524000Y-58100600D02*
X97384000Y-58100600D01*
X94524000Y-56180600D02*
X94524000Y-58100600D01*
%TO.C,D3*%
X97384000Y-62260600D02*
X94524000Y-62260600D01*
X94524000Y-64180600D02*
X97384000Y-64180600D01*
X94524000Y-62260600D02*
X94524000Y-64180600D01*
%TO.C,D4*%
X97384000Y-65300600D02*
X94524000Y-65300600D01*
X94524000Y-67220600D02*
X97384000Y-67220600D01*
X94524000Y-65300600D02*
X94524000Y-67220600D01*
%TO.C,R2*%
X92179224Y-56618100D02*
X91669776Y-56618100D01*
X92179224Y-57663100D02*
X91669776Y-57663100D01*
%TO.C,R3*%
X92179224Y-59666100D02*
X91669776Y-59666100D01*
X92179224Y-60711100D02*
X91669776Y-60711100D01*
%TO.C,R4*%
X100725500Y-61355824D02*
X100725500Y-60846376D01*
X99680500Y-61355824D02*
X99680500Y-60846376D01*
%TO.C,R7*%
X96776624Y-73493100D02*
X96267176Y-73493100D01*
X96776624Y-74538100D02*
X96267176Y-74538100D01*
%TO.C,Y1*%
X80386400Y-101060400D02*
X80386400Y-95840400D01*
X80386400Y-95840400D02*
X67666400Y-95840400D01*
X67666400Y-101060400D02*
X80386400Y-101060400D01*
%TO.C,R5*%
X73340700Y-119836024D02*
X73340700Y-119326576D01*
X74385700Y-119836024D02*
X74385700Y-119326576D01*
%TO.C,C5*%
X80948200Y-61236048D02*
X80948200Y-61758552D01*
X79478200Y-61236048D02*
X79478200Y-61758552D01*
%TO.C,U9*%
X60427700Y-70952800D02*
X58607700Y-70952800D01*
X60427700Y-70902800D02*
X60427700Y-70952800D01*
X60427700Y-67832800D02*
X60427700Y-67882800D01*
X58607700Y-70952800D02*
X58607700Y-70902800D01*
X58607700Y-67882800D02*
X58607700Y-67832800D01*
X58607700Y-67832800D02*
X60427700Y-67832800D01*
X61207700Y-71232800D02*
X60727700Y-71232800D01*
X60967700Y-70902800D01*
X61207700Y-71232800D01*
G36*
X61207700Y-71232800D02*
G01*
X60727700Y-71232800D01*
X60967700Y-70902800D01*
X61207700Y-71232800D01*
G37*
%TO.C,U8*%
X60162700Y-53680800D02*
X58342700Y-53680800D01*
X60162700Y-53630800D02*
X60162700Y-53680800D01*
X60162700Y-50560800D02*
X60162700Y-50610800D01*
X58342700Y-53680800D02*
X58342700Y-53630800D01*
X58342700Y-50610800D02*
X58342700Y-50560800D01*
X58342700Y-50560800D02*
X60162700Y-50560800D01*
X60942700Y-53960800D02*
X60462700Y-53960800D01*
X60702700Y-53630800D01*
X60942700Y-53960800D01*
G36*
X60942700Y-53960800D02*
G01*
X60462700Y-53960800D01*
X60702700Y-53630800D01*
X60942700Y-53960800D01*
G37*
%TO.C,U7*%
X85785700Y-123392800D02*
X87605700Y-123392800D01*
X85785700Y-123442800D02*
X85785700Y-123392800D01*
X85785700Y-126512800D02*
X85785700Y-126462800D01*
X87605700Y-123392800D02*
X87605700Y-123442800D01*
X87605700Y-126462800D02*
X87605700Y-126512800D01*
X87605700Y-126512800D02*
X85785700Y-126512800D01*
X85245700Y-123442800D02*
X85005700Y-123112800D01*
X85485700Y-123112800D01*
X85245700Y-123442800D01*
G36*
X85245700Y-123442800D02*
G01*
X85005700Y-123112800D01*
X85485700Y-123112800D01*
X85245700Y-123442800D01*
G37*
%TO.C,U6*%
X60416700Y-126766800D02*
X58596700Y-126766800D01*
X60416700Y-126716800D02*
X60416700Y-126766800D01*
X60416700Y-123646800D02*
X60416700Y-123696800D01*
X58596700Y-126766800D02*
X58596700Y-126716800D01*
X58596700Y-123696800D02*
X58596700Y-123646800D01*
X58596700Y-123646800D02*
X60416700Y-123646800D01*
X61196700Y-127046800D02*
X60716700Y-127046800D01*
X60956700Y-126716800D01*
X61196700Y-127046800D01*
G36*
X61196700Y-127046800D02*
G01*
X60716700Y-127046800D01*
X60956700Y-126716800D01*
X61196700Y-127046800D01*
G37*
%TO.C,U5*%
X60416700Y-109494800D02*
X58596700Y-109494800D01*
X60416700Y-109444800D02*
X60416700Y-109494800D01*
X60416700Y-106374800D02*
X60416700Y-106424800D01*
X58596700Y-109494800D02*
X58596700Y-109444800D01*
X58596700Y-106424800D02*
X58596700Y-106374800D01*
X58596700Y-106374800D02*
X60416700Y-106374800D01*
X61196700Y-109774800D02*
X60716700Y-109774800D01*
X60956700Y-109444800D01*
X61196700Y-109774800D01*
G36*
X61196700Y-109774800D02*
G01*
X60716700Y-109774800D01*
X60956700Y-109444800D01*
X61196700Y-109774800D01*
G37*
%TO.C,U4*%
X60416700Y-92222800D02*
X58596700Y-92222800D01*
X60416700Y-92172800D02*
X60416700Y-92222800D01*
X60416700Y-89102800D02*
X60416700Y-89152800D01*
X58596700Y-92222800D02*
X58596700Y-92172800D01*
X58596700Y-89152800D02*
X58596700Y-89102800D01*
X58596700Y-89102800D02*
X60416700Y-89102800D01*
X61196700Y-92502800D02*
X60716700Y-92502800D01*
X60956700Y-92172800D01*
X61196700Y-92502800D01*
G36*
X61196700Y-92502800D02*
G01*
X60716700Y-92502800D01*
X60956700Y-92172800D01*
X61196700Y-92502800D01*
G37*
%TO.C,J4*%
X105733200Y-117708800D02*
X105213200Y-117708800D01*
X105213200Y-117708800D02*
X105213200Y-118358800D01*
X97103200Y-118358800D02*
X105213200Y-118358800D01*
X90253200Y-118358800D02*
X93583200Y-118358800D01*
X90033200Y-129418800D02*
X90033200Y-127618800D01*
X105213200Y-131678800D02*
X97103200Y-131678800D01*
X105213200Y-131678800D02*
X105213200Y-132328800D01*
X90253200Y-131678800D02*
X90253200Y-118358800D01*
X90253200Y-131678800D02*
X93583200Y-131678800D01*
X105733200Y-132328800D02*
X105733200Y-117708800D01*
X105213200Y-132328800D02*
X105733200Y-132328800D01*
%TO.C,C10*%
X86844200Y-129097048D02*
X86844200Y-129619552D01*
X88314200Y-129097048D02*
X88314200Y-129619552D01*
%TO.C,C6*%
X72820200Y-61236048D02*
X72820200Y-61758552D01*
X71350200Y-61236048D02*
X71350200Y-61758552D01*
%TO.C,C13*%
X76122200Y-57694552D02*
X76122200Y-57172048D01*
X74652200Y-57694552D02*
X74652200Y-57172048D01*
%TO.C,C7*%
X57693400Y-86400552D02*
X57693400Y-85878048D01*
X59163400Y-86400552D02*
X59163400Y-85878048D01*
%TO.C,C8*%
X59163400Y-103672552D02*
X59163400Y-103150048D01*
X57693400Y-103672552D02*
X57693400Y-103150048D01*
%TO.C,D6*%
X61228400Y-49478800D02*
X63248400Y-49478800D01*
X61228400Y-49478800D02*
X61228400Y-45718800D01*
X63248400Y-49478800D02*
X63248400Y-45718800D01*
%TO.C,C9*%
X57634200Y-120944552D02*
X57634200Y-120422048D01*
X59104200Y-120944552D02*
X59104200Y-120422048D01*
%TO.C,C11*%
X58850200Y-47792552D02*
X58850200Y-47270048D01*
X57380200Y-47792552D02*
X57380200Y-47270048D01*
%TO.C,C12*%
X59163400Y-65064552D02*
X59163400Y-64542048D01*
X57693400Y-65064552D02*
X57693400Y-64542048D01*
%TO.C,D7*%
X61228400Y-66750800D02*
X63248400Y-66750800D01*
X61228400Y-66750800D02*
X61228400Y-62990800D01*
X63248400Y-66750800D02*
X63248400Y-62990800D01*
%TO.C,C1*%
X79436952Y-111075800D02*
X78914448Y-111075800D01*
X79436952Y-112545800D02*
X78914448Y-112545800D01*
%TO.C,C2*%
X79479952Y-106757800D02*
X78957448Y-106757800D01*
X79479952Y-108227800D02*
X78957448Y-108227800D01*
%TO.C,R1*%
X71337700Y-119836024D02*
X71337700Y-119326576D01*
X70292700Y-119836024D02*
X70292700Y-119326576D01*
%TO.C,R8*%
X77433700Y-119836024D02*
X77433700Y-119326576D01*
X76388700Y-119836024D02*
X76388700Y-119326576D01*
%TO.C,U1*%
X70717700Y-106956800D02*
X70477700Y-106626800D01*
X70957700Y-106626800D01*
X70717700Y-106956800D01*
G36*
X70717700Y-106956800D02*
G01*
X70477700Y-106626800D01*
X70957700Y-106626800D01*
X70717700Y-106956800D01*
G37*
D11*
X75430200Y-116636800D02*
X75430200Y-116156800D01*
X75430200Y-106476800D02*
X75430200Y-106956800D01*
X71280200Y-116636800D02*
X75430200Y-116636800D01*
X71280200Y-116636800D02*
X71280200Y-116156800D01*
X71280200Y-106476800D02*
X75430200Y-106476800D01*
X71280200Y-106476800D02*
X71280200Y-106956800D01*
D12*
%TO.C,R6*%
X79436700Y-119789024D02*
X79436700Y-119279576D01*
X80481700Y-119789024D02*
X80481700Y-119279576D01*
%TO.C,C4*%
X73129952Y-68857800D02*
X72607448Y-68857800D01*
X73129952Y-67387800D02*
X72607448Y-67387800D01*
%TO.C,C3*%
X73129952Y-71143800D02*
X72607448Y-71143800D01*
X73129952Y-69673800D02*
X72607448Y-69673800D01*
%TO.C,J5*%
X39961200Y-59430800D02*
X40481200Y-59430800D01*
X40481200Y-59430800D02*
X40481200Y-58780800D01*
X48591200Y-58780800D02*
X40481200Y-58780800D01*
X55441200Y-58780800D02*
X52111200Y-58780800D01*
X55661200Y-47720800D02*
X55661200Y-49520800D01*
X40481200Y-45460800D02*
X48591200Y-45460800D01*
X40481200Y-45460800D02*
X40481200Y-44810800D01*
X55441200Y-45460800D02*
X55441200Y-58780800D01*
X55441200Y-45460800D02*
X52111200Y-45460800D01*
X39961200Y-44810800D02*
X39961200Y-59430800D01*
X40481200Y-44810800D02*
X39961200Y-44810800D01*
%TO.C,J3*%
X40020400Y-132652800D02*
X40540400Y-132652800D01*
X40540400Y-132652800D02*
X40540400Y-132002800D01*
X48650400Y-132002800D02*
X40540400Y-132002800D01*
X55500400Y-132002800D02*
X52170400Y-132002800D01*
X55720400Y-120942800D02*
X55720400Y-122742800D01*
X40540400Y-118682800D02*
X48650400Y-118682800D01*
X40540400Y-118682800D02*
X40540400Y-118032800D01*
X55500400Y-118682800D02*
X55500400Y-132002800D01*
X55500400Y-118682800D02*
X52170400Y-118682800D01*
X40020400Y-118032800D02*
X40020400Y-132652800D01*
X40540400Y-118032800D02*
X40020400Y-118032800D01*
%TO.C,J1*%
X40020400Y-98032800D02*
X40540400Y-98032800D01*
X40540400Y-98032800D02*
X40540400Y-97382800D01*
X48650400Y-97382800D02*
X40540400Y-97382800D01*
X55500400Y-97382800D02*
X52170400Y-97382800D01*
X55720400Y-86322800D02*
X55720400Y-88122800D01*
X40540400Y-84062800D02*
X48650400Y-84062800D01*
X40540400Y-84062800D02*
X40540400Y-83412800D01*
X55500400Y-84062800D02*
X55500400Y-97382800D01*
X55500400Y-84062800D02*
X52170400Y-84062800D01*
X40020400Y-83412800D02*
X40020400Y-98032800D01*
X40540400Y-83412800D02*
X40020400Y-83412800D01*
%TO.C,J2*%
X40020400Y-115342800D02*
X40540400Y-115342800D01*
X40540400Y-115342800D02*
X40540400Y-114692800D01*
X48650400Y-114692800D02*
X40540400Y-114692800D01*
X55500400Y-114692800D02*
X52170400Y-114692800D01*
X55720400Y-103632800D02*
X55720400Y-105432800D01*
X40540400Y-101372800D02*
X48650400Y-101372800D01*
X40540400Y-101372800D02*
X40540400Y-100722800D01*
X55500400Y-101372800D02*
X55500400Y-114692800D01*
X55500400Y-101372800D02*
X52170400Y-101372800D01*
X40020400Y-100722800D02*
X40020400Y-115342800D01*
X40540400Y-100722800D02*
X40020400Y-100722800D01*
%TO.C,J6*%
X39961200Y-76740800D02*
X40481200Y-76740800D01*
X40481200Y-76740800D02*
X40481200Y-76090800D01*
X48591200Y-76090800D02*
X40481200Y-76090800D01*
X55441200Y-76090800D02*
X52111200Y-76090800D01*
X55661200Y-65030800D02*
X55661200Y-66830800D01*
X40481200Y-62770800D02*
X48591200Y-62770800D01*
X40481200Y-62770800D02*
X40481200Y-62120800D01*
X55441200Y-62770800D02*
X55441200Y-76090800D01*
X55441200Y-62770800D02*
X52111200Y-62770800D01*
X39961200Y-62120800D02*
X39961200Y-76740800D01*
X40481200Y-62120800D02*
X39961200Y-62120800D01*
%TO.C,U3*%
X75411200Y-61124800D02*
X75131200Y-61124800D01*
X75411200Y-60844800D01*
X75411200Y-61124800D01*
G36*
X75411200Y-61124800D02*
G01*
X75131200Y-61124800D01*
X75411200Y-60844800D01*
X75411200Y-61124800D01*
G37*
X76821200Y-63444800D02*
X75521200Y-63444800D01*
X76821200Y-61124800D02*
X75771200Y-61124800D01*
%TO.C,U2*%
X64551200Y-68998800D02*
X64311200Y-68668800D01*
X64791200Y-68668800D01*
X64551200Y-68998800D01*
G36*
X64551200Y-68998800D02*
G01*
X64311200Y-68668800D01*
X64791200Y-68668800D01*
X64551200Y-68998800D01*
G37*
X68361200Y-72018800D02*
X65141200Y-72018800D01*
X68361200Y-71818800D02*
X68361200Y-72018800D01*
X68361200Y-68798800D02*
X68361200Y-68998800D01*
X65141200Y-72018800D02*
X65141200Y-71818800D01*
X65141200Y-68998800D02*
X65141200Y-68798800D01*
X65141200Y-68798800D02*
X68361200Y-68798800D01*
%TD*%
%LPC*%
D13*
%TO.C,REF\u002A\u002A*%
X66751200Y-38303200D03*
%TD*%
%TO.C,REF\u002A\u002A*%
X71831200Y-38354000D03*
%TD*%
%TO.C,REF\u002A\u002A*%
X81737200Y-38354000D03*
%TD*%
%TO.C,REF\u002A\u002A*%
X76708000Y-38354000D03*
%TD*%
%TO.C,REF\u002A\u002A*%
X61569600Y-38354000D03*
%TD*%
D14*
%TO.C,REF\u002A\u002A*%
X99894000Y-40491800D03*
%TD*%
%TO.C,REF\u002A\u002A*%
X45648000Y-40491800D03*
%TD*%
%TO.C,REF\u002A\u002A*%
X99894000Y-138248000D03*
%TD*%
%TO.C,REF\u002A\u002A*%
X45622600Y-138171800D03*
%TD*%
D15*
%TO.C,SW1*%
X94945200Y-78536800D03*
X94945200Y-81076800D03*
X94945200Y-83616800D03*
X92405200Y-83616800D03*
X92405200Y-81076800D03*
D16*
X92405200Y-78536800D03*
%TD*%
D17*
%TO.C,D2*%
X97409000Y-60180600D03*
X95359000Y-60180600D03*
%TD*%
%TO.C,D5*%
X97409000Y-69300600D03*
X95359000Y-69300600D03*
%TD*%
%TO.C,D1*%
X97409000Y-57140600D03*
X95359000Y-57140600D03*
%TD*%
%TO.C,D3*%
X97409000Y-63220600D03*
X95359000Y-63220600D03*
%TD*%
%TO.C,D4*%
X97409000Y-66260600D03*
X95359000Y-66260600D03*
%TD*%
D18*
%TO.C,R2*%
X91012000Y-57140600D03*
X92837000Y-57140600D03*
%TD*%
%TO.C,R3*%
X91012000Y-60188600D03*
X92837000Y-60188600D03*
%TD*%
D19*
%TO.C,R4*%
X100203000Y-60188600D03*
X100203000Y-62013600D03*
%TD*%
D18*
%TO.C,R7*%
X95609400Y-74015600D03*
X97434400Y-74015600D03*
%TD*%
D20*
%TO.C,Y1*%
X77876400Y-98450400D03*
X69376400Y-98450400D03*
%TD*%
D19*
%TO.C,R5*%
X73863200Y-120493800D03*
X73863200Y-118668800D03*
%TD*%
D21*
%TO.C,C5*%
X80213200Y-60459800D03*
X80213200Y-62534800D03*
%TD*%
D22*
%TO.C,U9*%
X60655200Y-70342800D03*
X60655200Y-69392800D03*
X60655200Y-68442800D03*
X58380200Y-68442800D03*
X58380200Y-69392800D03*
X58380200Y-70342800D03*
%TD*%
%TO.C,U8*%
X60390200Y-53070800D03*
X60390200Y-52120800D03*
X60390200Y-51170800D03*
X58115200Y-51170800D03*
X58115200Y-52120800D03*
X58115200Y-53070800D03*
%TD*%
D23*
%TO.C,U7*%
X85558200Y-124002800D03*
X85558200Y-124952800D03*
X85558200Y-125902800D03*
X87833200Y-125902800D03*
X87833200Y-124952800D03*
X87833200Y-124002800D03*
%TD*%
D22*
%TO.C,U6*%
X60644200Y-126156800D03*
X60644200Y-125206800D03*
X60644200Y-124256800D03*
X58369200Y-124256800D03*
X58369200Y-125206800D03*
X58369200Y-126156800D03*
%TD*%
%TO.C,U5*%
X60644200Y-108884800D03*
X60644200Y-107934800D03*
X60644200Y-106984800D03*
X58369200Y-106984800D03*
X58369200Y-107934800D03*
X58369200Y-108884800D03*
%TD*%
%TO.C,U4*%
X60644200Y-91612800D03*
X60644200Y-90662800D03*
X60644200Y-89712800D03*
X58369200Y-89712800D03*
X58369200Y-90662800D03*
X58369200Y-91612800D03*
%TD*%
D24*
%TO.C,J4*%
X95343200Y-118448800D03*
X95343200Y-131588800D03*
D25*
X92633200Y-121518800D03*
X92633200Y-124018800D03*
X92633200Y-126018800D03*
D26*
X92633200Y-128518800D03*
%TD*%
D21*
%TO.C,C10*%
X87579200Y-130395800D03*
X87579200Y-128320800D03*
%TD*%
%TO.C,C6*%
X72085200Y-60459800D03*
X72085200Y-62534800D03*
%TD*%
D27*
%TO.C,C13*%
X75387200Y-56395800D03*
X75387200Y-58470800D03*
%TD*%
%TO.C,C7*%
X58428400Y-87176800D03*
X58428400Y-85101800D03*
%TD*%
%TO.C,C8*%
X58428400Y-102373800D03*
X58428400Y-104448800D03*
%TD*%
D28*
%TO.C,D6*%
X62238400Y-48568800D03*
X62238400Y-45668800D03*
%TD*%
D27*
%TO.C,C9*%
X58369200Y-121720800D03*
X58369200Y-119645800D03*
%TD*%
%TO.C,C11*%
X58115200Y-46493800D03*
X58115200Y-48568800D03*
%TD*%
%TO.C,C12*%
X58428400Y-63765800D03*
X58428400Y-65840800D03*
%TD*%
D28*
%TO.C,D7*%
X62238400Y-65840800D03*
X62238400Y-62940800D03*
%TD*%
D29*
%TO.C,C1*%
X78138200Y-111810800D03*
X80213200Y-111810800D03*
%TD*%
%TO.C,C2*%
X78181200Y-107492800D03*
X80256200Y-107492800D03*
%TD*%
D19*
%TO.C,R1*%
X70815200Y-118668800D03*
X70815200Y-120493800D03*
%TD*%
%TO.C,R8*%
X76911200Y-118668800D03*
X76911200Y-120493800D03*
%TD*%
D30*
%TO.C,U1*%
X75955200Y-107429300D03*
X75955200Y-108064300D03*
X75955200Y-108699300D03*
X75955200Y-109334300D03*
X75955200Y-109969300D03*
X75955200Y-110604300D03*
X75955200Y-111239300D03*
X75955200Y-111874300D03*
X75955200Y-112509300D03*
X75955200Y-113144300D03*
X75955200Y-113779300D03*
X75955200Y-114414300D03*
X75955200Y-115049300D03*
X75955200Y-115684300D03*
X70755200Y-115684300D03*
X70755200Y-115049300D03*
X70755200Y-114414300D03*
X70755200Y-113779300D03*
X70755200Y-113144300D03*
X70755200Y-112509300D03*
X70755200Y-111874300D03*
X70755200Y-111239300D03*
X70755200Y-110604300D03*
X70755200Y-109969300D03*
X70755200Y-109334300D03*
X70755200Y-108699300D03*
X70755200Y-108064300D03*
X70755200Y-107429300D03*
%TD*%
D19*
%TO.C,R6*%
X79959200Y-120446800D03*
X79959200Y-118621800D03*
%TD*%
D29*
%TO.C,C4*%
X73906200Y-68122800D03*
X71831200Y-68122800D03*
%TD*%
%TO.C,C3*%
X73906200Y-70408800D03*
X71831200Y-70408800D03*
%TD*%
D24*
%TO.C,J5*%
X50351200Y-58690800D03*
X50351200Y-45550800D03*
D25*
X53061200Y-55620800D03*
X53061200Y-53120800D03*
X53061200Y-51120800D03*
D26*
X53061200Y-48620800D03*
%TD*%
D24*
%TO.C,J3*%
X50410400Y-131912800D03*
X50410400Y-118772800D03*
D25*
X53120400Y-128842800D03*
X53120400Y-126342800D03*
X53120400Y-124342800D03*
D26*
X53120400Y-121842800D03*
%TD*%
D24*
%TO.C,J1*%
X50410400Y-97292800D03*
X50410400Y-84152800D03*
D25*
X53120400Y-94222800D03*
X53120400Y-91722800D03*
X53120400Y-89722800D03*
D26*
X53120400Y-87222800D03*
%TD*%
D24*
%TO.C,J2*%
X50410400Y-114602800D03*
X50410400Y-101462800D03*
D25*
X53120400Y-111532800D03*
X53120400Y-109032800D03*
X53120400Y-107032800D03*
D26*
X53120400Y-104532800D03*
%TD*%
D24*
%TO.C,J6*%
X50351200Y-76000800D03*
X50351200Y-62860800D03*
D25*
X53061200Y-72930800D03*
X53061200Y-70430800D03*
X53061200Y-68430800D03*
D26*
X53061200Y-65930800D03*
%TD*%
D31*
%TO.C,U3*%
X76911200Y-61534800D03*
X76911200Y-62034800D03*
X76911200Y-62534800D03*
X76911200Y-63034800D03*
X75431200Y-63034800D03*
X75431200Y-62534800D03*
X75431200Y-62034800D03*
X75431200Y-61534800D03*
%TD*%
D32*
%TO.C,U2*%
X68951200Y-69408800D03*
X68951200Y-69908800D03*
X68951200Y-70408800D03*
X68951200Y-70908800D03*
X68951200Y-71408800D03*
X64551200Y-71408800D03*
X64551200Y-70908800D03*
X64551200Y-70408800D03*
X64551200Y-69908800D03*
X64551200Y-69408800D03*
%TD*%
%LPD*%
M02*
